<svg version="1.1" id="Layer_1" xmlns="http://www.w3.org/2000/svg" xmlns:xlink="http://www.w3.org/1999/xlink" x="0px" y="0px"
	 width="100%" viewBox="0 0 409 391" enable-background="new 0 0 409 391" xml:space="preserve">
<path fill="#000000" opacity="1.000000" stroke="none" 
	d="
M56.000000,392.000000 
	C37.671879,392.000000 19.343758,392.000000 1.011728,392.000000 
	C1.007819,261.708923 1.007819,131.417877 1.007819,1.063402 
	C137.252274,1.063402 273.504578,1.063402 409.878448,1.063402 
	C409.878448,131.215149 409.878448,261.430450 409.878448,392.000000 
	C314.312195,392.000000 218.623962,392.000000 122.100876,391.778076 
	C121.516975,391.045074 121.767914,390.533966 122.343842,389.980774 
	C123.101868,389.886658 123.534897,389.834534 124.362396,389.860931 
	C125.820045,389.886841 126.883232,389.834290 128.413422,389.854858 
	C206.071518,389.955811 283.262604,389.989685 360.453705,389.966858 
	C361.969299,389.966400 363.484680,389.300659 364.972717,388.941528 
	C364.945282,388.937714 364.946960,388.993134 365.242554,388.886566 
	C365.708588,388.189758 365.878998,387.599487 366.030182,386.992279 
	C366.010956,386.975311 365.996918,387.024658 366.359528,386.785522 
	C366.802155,383.895142 366.949890,381.243988 366.952240,378.592682 
	C367.009521,314.079407 367.051300,249.566147 367.063232,185.056198 
	C367.030609,185.059525 367.062378,185.116943 367.526367,185.078308 
	C378.006622,184.964157 388.022949,184.888657 398.427429,184.881256 
	C408.366028,182.615417 410.736084,177.528000 405.018982,171.583405 
	C404.118622,170.647232 403.060089,169.863190 401.919312,168.705414 
	C392.864471,160.856308 384.013428,153.252502 375.053589,145.779190 
	C363.189117,135.883133 351.355347,125.943214 339.255188,116.341187 
	C335.679443,113.503654 332.681763,110.879440 333.320618,105.890892 
	C333.623932,105.731651 333.712860,105.615959 333.801788,105.500275 
	C333.569885,105.355812 333.337982,105.211357 333.036163,104.698868 
	C333.001709,103.834129 333.037170,103.337418 333.369995,102.623177 
	C333.409424,100.248047 333.151459,98.090454 332.897430,95.552460 
	C332.855316,94.414825 332.809265,93.657578 332.838226,92.446930 
	C332.944946,78.525513 333.011169,65.057365 332.958252,51.589695 
	C332.952576,50.142467 332.253876,48.697960 331.647827,47.195496 
	C331.419037,47.138794 330.963928,47.261940 330.640350,47.187832 
	C329.876923,47.143700 329.437042,47.173672 328.756134,47.133820 
	C328.352631,47.104076 328.190216,47.144161 327.774445,47.111176 
	C327.351166,46.993240 327.181244,46.948380 326.849121,46.616280 
	C325.467651,45.936787 324.248383,45.544537 322.563416,45.081089 
	C310.854218,45.009892 299.610748,45.009892 287.884338,45.009892 
	C287.884338,54.112640 287.884338,62.513046 287.561768,70.827530 
	C275.322266,60.868271 263.403900,50.996639 251.488739,41.121136 
	C237.800720,29.776243 224.115677,18.427767 210.429077,7.081169 
	C207.379990,4.553387 204.155121,4.155212 201.016266,6.734476 
	C194.523331,12.069875 188.094574,17.485228 181.709335,22.949402 
	C171.737839,31.482525 161.887299,40.157829 151.870087,48.636501 
	C139.969269,58.709473 127.871140,68.549805 115.998596,78.655518 
	C105.337471,87.730080 94.923210,97.094124 84.298843,106.212540 
	C63.299595,124.235207 42.230415,142.176392 20.840038,160.134491 
	C18.651886,162.079819 16.813845,164.041931 14.996620,166.008728 
	C15.017439,166.013428 15.007231,165.971985 14.748919,166.044067 
	C14.309092,166.412521 14.127578,166.708878 13.976458,167.011017 
	C14.006850,167.016800 14.002967,166.955048 13.650907,166.985428 
	C11.667848,168.380676 10.065580,169.781769 8.399892,171.102890 
	C4.884749,173.890884 5.188560,178.041489 6.523363,181.088120 
	C7.390213,183.066696 11.218773,184.757858 13.763744,184.820663 
	C26.540110,185.136032 39.330772,184.872314 52.311241,184.875107 
	C52.506069,184.938171 52.905315,185.029510 52.935619,185.495819 
	C52.976780,251.479935 52.979446,316.997742 53.040390,382.515533 
	C53.042114,384.368988 53.665062,386.221863 54.028473,388.460876 
	C54.705734,389.897797 55.352867,390.948914 56.000000,392.000000 
z"/>
<path fill="#D95910" opacity="1.000000" stroke="none" 
	d="
M122.018845,390.022827 
	C121.767914,390.533966 121.516975,391.045074 121.633026,391.778076 
	C100.312439,392.000000 78.624878,392.000000 56.468658,392.000000 
	C55.352867,390.948914 54.705734,389.897797 54.028141,388.078308 
	C54.005127,386.546631 54.012577,385.783325 54.226768,385.312408 
	C55.827938,389.131012 58.837303,389.050659 61.898876,389.043823 
	C80.603630,389.002167 99.308533,388.981659 118.013168,389.034027 
	C119.349304,389.037750 120.683655,389.678375 122.018845,390.022827 
z"/>
<path fill="#EF6C03" opacity="1.000000" stroke="none" 
	d="
M122.343842,389.980774 
	C120.683655,389.678375 119.349304,389.037750 118.013168,389.034027 
	C99.308533,388.981659 80.603630,389.002167 61.898876,389.043823 
	C58.837303,389.050659 55.827938,389.131012 54.217579,384.841492 
	C54.008934,349.392578 54.016220,314.706970 54.210796,279.652466 
	C54.585171,278.309052 54.933056,277.334900 54.935413,276.359894 
	C54.976135,259.539215 54.994434,242.718323 54.941647,225.897720 
	C54.937637,224.619598 54.363266,223.343277 54.051155,221.713501 
	C54.050056,220.890701 54.051826,220.420517 54.243393,219.591217 
	C54.620552,210.760956 54.910789,202.290176 54.939026,193.818542 
	C54.948799,190.886353 54.307911,187.951996 53.699463,185.018066 
	C53.258240,185.021500 53.081779,185.025497 52.905315,185.029510 
	C52.905315,185.029510 52.506069,184.938171 52.282135,184.662582 
	C52.058201,184.386993 51.992077,183.963333 51.630669,183.768738 
	C38.197483,183.394516 25.125711,183.214874 11.685619,182.943420 
	C7.360135,180.448151 6.736075,176.491135 9.674259,172.740707 
	C11.159286,170.845154 12.562671,168.885635 14.002967,166.955048 
	C14.002967,166.955048 14.006850,167.016800 14.201752,166.893036 
	C14.600179,166.503510 14.803702,166.237747 15.007229,165.971985 
	C15.007231,165.971985 15.017439,166.013428 15.346002,165.947296 
	C17.513096,163.971207 19.351625,162.061234 21.190155,160.151260 
	C42.230415,142.176392 63.299595,124.235207 84.298843,106.212540 
	C94.923210,97.094124 105.337471,87.730080 115.998596,78.655518 
	C127.871140,68.549805 139.969269,58.709473 151.870087,48.636501 
	C161.887299,40.157829 171.737839,31.482525 181.709335,22.949402 
	C188.094574,17.485228 194.523331,12.069875 201.016266,6.734476 
	C204.155121,4.155212 207.379990,4.553387 210.429077,7.081169 
	C224.115677,18.427767 237.800720,29.776243 251.488739,41.121136 
	C263.403900,50.996639 275.322266,60.868271 287.815643,70.506783 
	C288.684967,62.556400 288.977875,54.840843 289.714539,47.095329 
	C302.442627,47.011421 314.726959,46.957466 327.011292,46.903515 
	C327.181244,46.948380 327.351166,46.993240 327.884338,47.185913 
	C328.247589,47.333721 328.639313,47.366409 328.639313,47.366409 
	C328.639313,47.366409 328.997192,47.203648 328.997192,47.203644 
	C329.437042,47.173672 329.876923,47.143700 330.642944,47.639801 
	C331.300232,56.434566 331.631378,64.703255 331.971283,73.441940 
	C332.241089,80.241394 332.502167,86.570862 332.763184,92.900330 
	C332.809265,93.657578 332.855316,94.414825 332.781372,95.864006 
	C332.798431,98.650864 332.935516,100.745781 333.072632,102.840706 
	C333.037170,103.337418 333.001709,103.834129 333.027161,104.915314 
	C333.088043,105.499779 333.106201,105.934441 333.106201,105.934441 
	C332.681763,110.879440 335.679443,113.503654 339.255188,116.341187 
	C351.355347,125.943214 363.189117,135.883133 375.053589,145.779190 
	C384.013428,153.252502 392.864471,160.856308 401.830475,168.975525 
	C402.171448,170.280487 402.457947,171.007736 402.718079,171.744263 
	C403.641205,174.357910 405.905060,177.560608 405.095154,179.426361 
	C404.277191,181.310532 400.472992,182.635757 397.863312,182.855469 
	C391.929077,183.355103 385.922058,182.913193 379.950470,183.073013 
	C375.689606,183.187042 371.438293,183.657379 367.144379,184.254913 
	C367.091522,184.733047 367.076965,184.925003 367.062378,185.116943 
	C367.062378,185.116943 367.030609,185.059525 366.812073,185.057983 
	C366.426117,185.059952 366.258759,185.063492 365.840973,185.191437 
	C365.393799,186.597153 365.025574,187.878357 365.024994,189.159744 
	C365.001740,240.509964 365.001312,291.860199 365.057983,343.210388 
	C365.060150,345.151123 365.657715,347.091217 365.984985,349.498230 
	C365.993713,362.318146 365.995300,374.671387 365.996918,387.024658 
	C365.996918,387.024658 366.010956,386.975311 365.817993,387.192139 
	C365.399017,387.937012 365.172974,388.465057 364.946960,388.993134 
	C364.946960,388.993134 364.945282,388.937714 364.503174,388.924683 
	C286.394073,388.921082 208.727051,388.930542 130.927246,388.874329 
	C130.497162,388.726349 130.214645,388.765594 129.609772,388.922546 
	C128.823013,388.919250 128.373413,388.919861 127.581940,388.927185 
	C126.149345,389.216736 125.058632,389.499573 123.967926,389.782410 
	C123.534897,389.834534 123.101868,389.886658 122.343842,389.980774 
M247.108398,374.753235 
	C247.199127,374.485260 247.149902,374.240662 246.973450,373.997040 
	C246.973450,373.997040 246.981232,374.016571 246.706482,373.656250 
	C246.513702,373.423340 246.302719,373.208252 246.048187,372.342865 
	C246.043747,371.897156 246.039291,371.451477 246.399673,370.307037 
	C246.280045,367.218445 246.160416,364.129822 246.023712,360.351654 
	C246.027298,359.891876 246.030884,359.432098 246.331909,358.522705 
	C246.235947,357.695221 246.139969,356.867706 246.026764,355.264069 
	C246.038239,354.487885 246.049713,353.711731 246.430969,352.216309 
	C246.621704,345.433655 246.972031,338.650452 246.947632,331.868591 
	C246.931107,327.271820 246.388123,322.676971 246.064255,317.366913 
	C246.065704,316.890564 246.067154,316.414185 246.424545,315.304291 
	C246.305191,311.554443 246.185852,307.804626 245.850403,303.589050 
	C245.658279,303.306793 245.466156,303.024536 245.164276,302.363068 
	C245.164276,302.363068 245.009109,302.000092 245.106705,301.520355 
	C245.106705,301.520355 245.236740,301.048370 245.531555,300.956207 
	C245.419388,300.635284 245.307220,300.314331 245.072708,299.186462 
	C245.895920,289.953033 250.490204,282.143738 257.223816,276.723969 
	C265.933411,269.713776 276.402557,266.369293 288.111511,269.014618 
	C302.321594,272.224976 317.416443,286.211182 317.061371,303.142548 
	C316.546326,327.704041 316.960938,352.285004 317.213959,377.352661 
	C317.500366,377.569855 317.786774,377.787079 317.987915,378.023926 
	C317.987915,378.023926 317.968048,377.938660 318.660217,378.411255 
	C329.123932,378.327148 339.587646,378.243042 350.603394,377.923920 
	C351.137421,377.336761 351.671448,376.749603 352.573090,375.390381 
	C352.733002,373.576813 353.031891,371.763306 353.032623,369.949677 
	C353.057953,306.540833 353.064301,243.132004 353.020050,179.723206 
	C353.018433,177.441528 352.479218,175.160233 352.034485,172.132462 
	C351.555939,165.175278 345.976013,161.987122 341.477386,158.106308 
	C328.729858,147.109344 315.840271,136.277222 303.053162,125.325851 
	C290.656830,114.709137 278.354431,103.982590 265.944305,93.382126 
	C253.048355,82.366707 240.082184,71.433372 227.128204,60.486076 
	C220.109451,54.554592 213.052094,48.668804 205.860916,42.635506 
	C162.379807,79.940788 119.164482,117.018044 75.442467,153.909546 
	C74.782928,154.366135 74.123383,154.822708 73.463837,155.279282 
	C74.293457,155.829285 75.123085,156.379272 76.058479,156.916840 
	C76.058479,156.916840 76.071930,157.022491 76.447563,157.672043 
	C78.485962,158.115585 80.523064,158.938049 82.562958,158.945023 
	C107.395363,159.029984 132.228241,159.015671 157.060776,158.951248 
	C159.008301,158.946198 160.954361,158.374634 163.624512,158.301865 
	C175.333893,158.540359 187.042572,158.880188 198.753036,158.958893 
	C202.529922,158.984299 204.116577,160.252823 204.057693,164.174774 
	C203.873581,176.438828 203.932800,188.706558 203.474548,201.673935 
	C200.661652,201.719284 197.848770,201.764633 194.656235,201.566803 
	C194.092331,201.649048 193.528442,201.731277 192.347351,201.922211 
	C191.931839,201.964157 191.516327,202.006104 190.507828,202.026413 
	C190.310120,202.032181 190.112396,202.037964 189.457153,201.988388 
	C189.457153,201.988388 188.998718,202.035614 188.279770,201.633438 
	C187.804230,201.491028 187.329010,201.225037 186.853119,201.223877 
	C161.468063,201.162064 136.082901,201.095276 110.698112,201.164368 
	C109.475082,201.167679 108.255363,202.388351 107.000908,202.999390 
	C107.000908,202.999390 107.042419,203.034561 106.355316,203.380859 
	C106.149971,208.928329 105.944618,214.475784 105.856499,220.845322 
	C105.805428,222.225571 105.754356,223.605835 105.344933,225.728531 
	C105.202721,230.689240 104.986511,235.649216 104.935898,240.610855 
	C104.862564,247.799149 104.934105,247.821030 112.717010,248.404343 
	C115.353287,248.650513 117.996742,249.164185 120.624504,249.093552 
	C129.060806,248.866776 137.491287,248.424072 146.783859,248.032654 
	C148.217545,248.047134 149.651215,248.061615 151.635696,248.461624 
	C152.894363,248.795532 154.154587,249.424957 155.411469,249.418350 
	C170.600555,249.338699 185.789185,249.165146 200.993164,249.949905 
	C200.946426,262.858063 200.899673,275.766235 200.170547,288.715149 
	C199.715088,288.730286 199.259644,288.745422 198.162155,288.480164 
	C195.825470,288.586090 193.488800,288.692017 190.196823,288.842773 
	C167.065262,288.876251 143.933624,288.887787 120.802284,288.977386 
	C118.512550,288.986267 116.224648,289.472107 113.219238,289.886047 
	C111.218559,289.992371 109.217873,290.098724 107.478325,290.191193 
	C106.953644,295.046661 106.458344,299.630310 105.536461,304.869049 
	C105.062798,315.876312 104.532684,326.881897 104.210197,337.893585 
	C104.180710,338.900696 105.480423,339.946686 106.569267,341.044617 
	C106.569267,341.044617 106.957253,341.184326 107.267487,341.717010 
	C108.853569,341.833069 110.439644,341.949127 112.750664,342.440155 
	C114.890038,342.621307 117.029198,342.957123 119.168823,342.960205 
	C147.772278,343.001648 176.375778,342.996521 205.269852,343.651825 
	C205.771729,345.449615 206.273590,347.247406 206.877609,349.682098 
	C206.844894,350.109558 206.812180,350.537018 206.466232,351.554840 
	C206.562943,353.054840 206.659637,354.554840 206.865433,356.910583 
	C206.828384,358.921082 206.791336,360.931549 206.505295,363.330902 
	C206.588348,363.906494 206.671387,364.482086 206.860168,365.831360 
	C206.828857,366.870422 206.797546,367.909515 206.493805,369.430603 
	C206.588364,370.302551 206.682922,371.174500 206.884827,372.774261 
	C206.920807,373.508453 206.956787,374.242615 206.962967,375.518860 
	C206.979019,375.699097 206.995071,375.879333 207.064667,376.580444 
	C207.361557,377.003876 207.658447,377.427277 207.974670,378.451050 
	C207.988739,378.650146 208.002823,378.849243 208.734528,379.442108 
	C219.857208,379.598816 230.979706,379.780792 242.102936,379.865509 
	C243.017639,379.872467 243.937378,379.218689 244.850754,378.383423 
	C244.850754,378.383423 244.862625,377.895050 245.278915,377.506775 
	C245.536880,377.004974 245.794846,376.503174 246.389343,375.690582 
	C246.605682,375.473511 246.801758,375.239502 246.975769,374.989502 
	C246.975769,374.989502 246.963806,374.976318 247.108398,374.753235 
M300.238007,342.471313 
	C299.851013,339.970703 300.259857,336.757355 298.844849,335.177490 
	C297.528687,333.707977 293.727905,332.903320 292.008728,333.768585 
	C290.063812,334.747437 288.146240,337.936768 288.195068,340.120667 
	C288.244873,342.348785 290.504425,346.147552 292.142212,346.341675 
	C294.618835,346.635162 297.395020,344.400848 300.238007,342.471313 
z"/>
<path fill="#C76F33" opacity="1.000000" stroke="none" 
	d="
M131.060028,388.939972 
	C208.727051,388.930542 286.394073,388.921082 364.530640,388.928467 
	C363.484680,389.300659 361.969299,389.966400 360.453705,389.966858 
	C283.262604,389.989685 206.071518,389.955811 128.412628,389.639435 
	C127.944839,389.350830 127.923820,388.920441 127.923820,388.920471 
	C128.373413,388.919861 128.823013,388.919250 129.888077,388.936340 
	C130.689056,388.949341 130.874542,388.944641 131.060028,388.939972 
z"/>
<path fill="#D66B22" opacity="1.000000" stroke="none" 
	d="
M54.053593,219.950348 
	C54.051826,220.420517 54.050056,220.890701 54.041916,222.174286 
	C54.031525,241.998901 54.027515,261.010101 54.023506,280.021332 
	C54.016220,314.706970 54.008934,349.392578 54.010834,384.549133 
	C54.012577,385.783325 54.005127,386.546631 53.998013,387.692444 
	C53.665062,386.221863 53.042114,384.368988 53.040390,382.515533 
	C52.979446,316.997742 52.976780,251.479935 52.935619,185.495819 
	C53.081779,185.025497 53.258240,185.021500 53.718777,185.484634 
	C54.019768,197.284622 54.036682,208.617493 54.053593,219.950348 
z"/>
<path fill="#DA6F25" opacity="1.000000" stroke="none" 
	d="
M366.091400,185.067017 
	C366.258759,185.063492 366.426117,185.059952 366.844696,185.054657 
	C367.051300,249.566147 367.009521,314.079407 366.952240,378.592682 
	C366.949890,381.243988 366.802155,383.895142 366.359528,386.785522 
	C365.995300,374.671387 365.993713,362.318146 365.995880,349.026276 
	C366.030243,293.747467 366.060822,239.407242 366.091400,185.067017 
z"/>
<path fill="#CF6527" opacity="1.000000" stroke="none" 
	d="
M51.992077,183.963333 
	C51.992077,183.963333 52.058201,184.386993 52.087303,184.599518 
	C39.330772,184.872314 26.540110,185.136032 13.763744,184.820663 
	C11.218773,184.757858 7.390213,183.066696 6.523363,181.088120 
	C5.188560,178.041489 4.884749,173.890884 8.399892,171.102890 
	C10.065580,169.781769 11.667848,168.380676 13.650907,166.985428 
	C12.562671,168.885635 11.159286,170.845154 9.674259,172.740707 
	C6.736075,176.491135 7.360135,180.448151 12.036138,183.150604 
	C14.388592,183.637527 16.021778,183.983582 17.655895,183.988037 
	C29.101183,184.019302 40.546661,183.980042 51.992077,183.963333 
z"/>
<path fill="#D24F05" opacity="1.000000" stroke="none" 
	d="
M367.182709,183.968719 
	C371.438293,183.657379 375.689606,183.187042 379.950470,183.073013 
	C385.922058,182.913193 391.929077,183.355103 397.863312,182.855469 
	C400.472992,182.635757 404.277191,181.310532 405.095154,179.426361 
	C405.905060,177.560608 403.641205,174.357910 402.718079,171.744263 
	C402.457947,171.007736 402.171448,170.280487 401.985840,169.278900 
	C403.060089,169.863190 404.118622,170.647232 405.018982,171.583405 
	C410.736084,177.528000 408.366028,182.615417 398.045959,184.714645 
	C387.245056,184.309525 377.213898,184.139130 367.182709,183.968719 
z"/>
<path fill="#CC6224" opacity="1.000000" stroke="none" 
	d="
M289.270752,47.125282 
	C288.977875,54.840843 288.684967,62.556400 288.138184,70.592705 
	C287.884338,62.513046 287.884338,54.112640 287.884338,45.009892 
	C299.610748,45.009892 310.854218,45.009892 322.183716,45.247265 
	C313.331055,45.653210 304.390411,45.759735 295.455048,46.036724 
	C293.384369,46.100918 291.331696,46.746967 289.270752,47.125282 
z"/>
<path fill="#DA6F25" opacity="1.000000" stroke="none" 
	d="
M332.838257,92.446930 
	C332.502167,86.570862 332.241089,80.241394 331.978790,72.976807 
	C331.943909,63.778515 331.910278,55.515354 331.876648,47.252190 
	C332.253876,48.697960 332.952576,50.142467 332.958252,51.589695 
	C333.011169,65.057365 332.944946,78.525513 332.838257,92.446930 
z"/>
<path fill="#DD4A01" opacity="1.000000" stroke="none" 
	d="
M289.714539,47.095329 
	C291.331696,46.746967 293.384369,46.100918 295.455048,46.036724 
	C304.390411,45.759735 313.331055,45.653210 322.649445,45.318462 
	C324.248383,45.544537 325.467651,45.936787 326.849121,46.616280 
	C314.726959,46.957466 302.442627,47.011421 289.714539,47.095329 
z"/>
<path fill="#D25F24" opacity="1.000000" stroke="none" 
	d="
M367.144379,184.254913 
	C377.213898,184.139130 387.245056,184.309525 397.657745,184.646545 
	C388.022949,184.888657 378.006622,184.964157 367.526367,185.078308 
	C367.076965,184.925003 367.091522,184.733047 367.144379,184.254913 
z"/>
<path fill="#E05903" opacity="1.000000" stroke="none" 
	d="
M331.647827,47.195492 
	C331.910278,55.515354 331.943909,63.778515 331.970062,72.506813 
	C331.631378,64.703255 331.300232,56.434566 330.966492,47.713909 
	C330.963928,47.261940 331.419037,47.138794 331.647827,47.195492 
z"/>
<path fill="#CF6527" opacity="1.000000" stroke="none" 
	d="
M20.840042,160.134491 
	C19.351625,162.061234 17.513096,163.971207 15.325184,165.942596 
	C16.813845,164.041931 18.651886,162.079819 20.840042,160.134491 
z"/>
<path fill="#DA6F25" opacity="1.000000" stroke="none" 
	d="
M333.369995,102.623177 
	C332.935516,100.745781 332.798431,98.650864 332.777405,96.244400 
	C333.151459,98.090454 333.409424,100.248047 333.369995,102.623177 
z"/>
<path fill="#D95910" opacity="1.000000" stroke="none" 
	d="
M127.581940,388.927185 
	C127.923820,388.920441 127.944839,389.350830 127.945625,389.566284 
	C126.883232,389.834290 125.820045,389.886841 124.362396,389.860901 
	C125.058632,389.499573 126.149345,389.216736 127.581940,388.927185 
z"/>
<path fill="#C76F33" opacity="1.000000" stroke="none" 
	d="
M365.242554,388.886566 
	C365.172974,388.465057 365.399017,387.937012 365.837219,387.209106 
	C365.878998,387.599487 365.708588,388.189758 365.242554,388.886566 
z"/>
<path fill="#DA6F25" opacity="1.000000" stroke="none" 
	d="
M333.320618,105.890892 
	C333.106201,105.934441 333.088043,105.499779 333.097046,105.283340 
	C333.337982,105.211357 333.569885,105.355812 333.801788,105.500275 
	C333.712860,105.615959 333.623932,105.731651 333.320618,105.890892 
z"/>
<path fill="#E05903" opacity="1.000000" stroke="none" 
	d="
M328.756134,47.133820 
	C328.997192,47.203648 328.639313,47.366409 328.639313,47.366409 
	C328.639313,47.366409 328.247589,47.333721 328.137695,47.258980 
	C328.190216,47.144161 328.352631,47.104076 328.756134,47.133820 
z"/>
<path fill="#CF6527" opacity="1.000000" stroke="none" 
	d="
M14.748917,166.044067 
	C14.803702,166.237747 14.600179,166.503510 14.171359,166.887268 
	C14.127578,166.708878 14.309092,166.412521 14.748917,166.044067 
z"/>
<path fill="#000000" opacity="1.000000" stroke="none" 
	d="
M316.979065,376.857666 
	C316.960938,352.285004 316.546326,327.704041 317.061371,303.142548 
	C317.416443,286.211182 302.321594,272.224976 288.111511,269.014618 
	C276.402557,266.369293 265.933411,269.713776 257.223816,276.723969 
	C250.490204,282.143738 245.895920,289.953033 245.079407,299.856049 
	C245.136292,300.699860 245.186508,300.874115 245.236740,301.048370 
	C245.236740,301.048370 245.106705,301.520355 244.700912,302.003113 
	C244.254822,325.662170 244.214523,348.838470 244.115356,372.352234 
	C244.081070,374.190491 244.105621,375.691345 243.828430,377.493866 
	C231.669586,377.813934 219.812469,377.832306 207.955353,377.850677 
	C207.658447,377.427277 207.361557,377.003876 207.263336,376.232452 
	C207.305588,375.581909 207.149170,375.279358 206.992767,374.976807 
	C206.956787,374.242615 206.920807,373.508453 206.918854,372.027405 
	C206.890671,370.503235 206.828461,369.725891 206.766235,368.948578 
	C206.797546,367.909515 206.828857,366.870422 206.896515,365.095367 
	C206.873337,363.886932 206.813812,363.414490 206.754272,362.942047 
	C206.791336,360.931549 206.828384,358.921082 206.902740,356.064209 
	C206.886505,353.800018 206.832977,352.382263 206.779449,350.964478 
	C206.812180,350.537018 206.844894,350.109558 206.916870,348.950012 
	C206.316650,345.882629 205.677170,343.547302 204.572357,341.133850 
	C171.723755,341.098602 139.340500,341.141479 106.957253,341.184326 
	C106.957253,341.184326 106.569267,341.044617 106.304962,340.544312 
	C106.014778,328.100647 105.988914,316.157318 105.963043,304.213959 
	C106.458344,299.630310 106.953644,295.046661 107.478325,290.191193 
	C109.217873,290.098724 111.218559,289.992371 114.045639,289.901794 
	C142.409332,289.951294 169.946655,290.001770 197.483887,289.974152 
	C199.007370,289.972626 200.530182,289.323517 202.023117,288.965576 
	C201.992920,288.955322 201.970901,289.014709 202.337448,288.780670 
	C202.804626,275.333466 202.920563,262.120331 202.961700,248.906967 
	C202.963806,248.228683 202.324371,247.548401 201.720490,246.535156 
	C169.761093,246.201263 138.064819,246.201263 105.703285,246.201263 
	C105.703285,238.557846 105.703285,231.771973 105.703285,224.986084 
	C105.754356,223.605835 105.805428,222.225571 106.024475,220.066132 
	C106.475769,213.869476 106.759094,208.452026 107.042419,203.034561 
	C107.042419,203.034561 107.000908,202.999390 107.274872,202.994415 
	C107.714333,202.940918 107.879829,202.892426 108.507393,202.902618 
	C119.311775,202.914001 129.654083,202.866684 140.244476,202.872513 
	C140.658981,202.895477 140.825394,202.865326 141.458221,202.902618 
	C149.620667,202.929031 157.316711,202.887970 165.478729,202.892090 
	C173.629379,202.636719 181.314056,202.336166 188.998718,202.035614 
	C188.998718,202.035614 189.457153,201.988388 189.770264,202.262238 
	C190.422516,202.373413 190.761673,202.210739 191.100815,202.048050 
	C191.516327,202.006104 191.931839,201.964157 192.997864,201.950104 
	C194.110870,201.921982 194.573380,201.865997 195.035873,201.809998 
	C197.848770,201.764633 200.661652,201.719284 204.069946,201.109589 
	C204.665359,186.145309 204.665359,171.745407 204.665359,157.372955 
	C203.791504,157.212631 203.311539,157.047226 202.831680,157.047531 
	C160.863327,157.074661 118.894981,157.114578 76.717293,157.092575 
	C76.507950,157.031555 76.071930,157.022491 76.071930,157.022491 
	C76.071930,157.022491 76.058479,156.916840 75.923340,156.660553 
	C75.841858,155.634598 75.895508,154.864944 75.949158,154.095291 
	C119.164482,117.018044 162.379807,79.940788 205.860916,42.635506 
	C213.052094,48.668804 220.109451,54.554592 227.128204,60.486076 
	C240.082184,71.433372 253.048355,82.366707 265.944305,93.382126 
	C278.354431,103.982590 290.656830,114.709137 303.053162,125.325851 
	C315.840271,136.277222 328.729858,147.109344 341.477386,158.106308 
	C345.976013,161.987122 351.555939,165.175278 352.044861,172.983124 
	C352.039490,211.304779 351.993805,248.775772 352.017487,286.246735 
	C352.036407,316.218658 352.139618,346.190552 352.205444,376.162445 
	C351.671448,376.749603 351.137421,377.336761 349.859070,377.963043 
	C338.732544,377.980988 328.350281,377.959839 317.968048,377.938660 
	C317.968048,377.938660 317.987915,378.023926 317.947510,377.743774 
	C317.597748,377.261627 317.288422,377.059662 316.979065,376.857666 
M252.284485,159.456223 
	C252.193024,166.274628 252.002701,173.093842 252.059052,179.911011 
	C252.081406,182.615402 252.651077,185.315277 253.424469,188.761002 
	C261.996124,188.790787 270.567780,188.820587 279.396729,188.948029 
	C279.396729,188.948029 279.646362,188.832138 280.528809,188.617676 
	C280.689117,179.908646 280.890686,171.199966 280.960754,162.490204 
	C280.970184,161.317810 280.317169,160.140091 279.500580,158.251785 
	C273.354858,158.168259 267.207794,157.974670 261.064087,158.052139 
	C258.381897,158.085938 255.706665,158.674881 252.284485,159.456223 
M287.027100,202.927078 
	C287.011719,209.693954 286.897736,216.463379 287.072418,223.225342 
	C287.103638,224.434860 288.329193,225.613510 289.930298,226.950958 
	C298.168579,226.950958 306.406830,226.950958 314.973969,226.950958 
	C314.973969,217.077576 314.988953,207.808258 314.928558,198.539413 
	C314.925629,198.087616 314.261597,197.640106 313.429688,197.096298 
	C313.429688,197.096298 312.964996,197.235184 312.175018,197.105377 
	C311.109894,197.141998 310.044739,197.178619 308.505676,197.067688 
	C308.505676,197.067688 308.027679,197.201721 307.349121,197.096146 
	C306.894470,197.134933 306.439789,197.173721 305.508881,197.078720 
	C305.508881,197.078720 305.033142,197.214569 304.133972,197.097977 
	C301.418457,197.132584 298.702911,197.167175 295.506012,197.066132 
	C295.345581,197.111450 295.185181,197.156784 294.179504,197.088318 
	C292.479279,197.138580 290.779053,197.188843 288.281860,197.115372 
	C287.906525,198.742004 287.531189,200.368637 287.027100,202.927078 
M292.171173,158.095917 
	C288.366241,157.527542 286.648529,158.895905 286.917694,162.994965 
	C287.211517,167.469360 286.867523,171.982086 287.032379,176.469635 
	C287.174347,180.334091 287.640808,184.186630 288.460358,188.751526 
	C297.211792,188.751526 305.963226,188.751526 314.983917,188.751526 
	C314.983917,179.199341 315.005829,170.105560 314.933350,161.012497 
	C314.928619,160.421631 314.198242,159.836533 313.115784,159.073685 
	C312.406647,159.126892 311.697479,159.180099 310.199585,159.123138 
	C309.140472,159.160782 308.081360,159.198425 306.496246,159.093231 
	C306.319916,159.137024 306.143585,159.180832 305.089600,159.104828 
	C302.724304,159.078522 300.358978,159.052216 297.581879,158.371246 
	C296.056732,158.337845 294.531616,158.304459 292.171173,158.095917 
M280.729401,225.572403 
	C280.749115,216.351807 280.768829,207.131210 280.782227,197.469788 
	C280.619415,197.197708 280.380951,197.040268 279.599884,196.255249 
	C270.538361,196.255249 261.476837,196.255249 252.016174,196.255249 
	C252.016174,204.823547 251.959351,212.942596 252.062363,221.059631 
	C252.083893,222.756348 252.695221,224.445602 253.568588,226.796326 
	C258.700012,226.869614 263.834229,227.077744 268.961884,226.970917 
	C272.654388,226.893951 276.338165,226.397247 280.729401,225.572403 
z"/>
<path fill="#CC520E" opacity="1.000000" stroke="none" 
	d="
M105.524109,225.357300 
	C105.703285,231.771973 105.703285,238.557846 105.703285,246.201263 
	C138.064819,246.201263 169.761093,246.201263 201.714020,246.822174 
	C201.953445,247.633362 201.936234,247.823639 201.665894,248.022400 
	C201.244217,248.040726 201.075668,248.050583 200.444458,248.047089 
	C183.682816,248.047867 167.383865,248.061996 151.084900,248.076111 
	C149.651215,248.061615 148.217545,248.047134 145.894058,248.032898 
	C134.009750,248.031509 123.015244,248.029877 112.020737,248.028244 
	C104.934105,247.821030 104.862564,247.799149 104.935898,240.610855 
	C104.986511,235.649216 105.202721,230.689240 105.524109,225.357300 
z"/>
<path fill="#C97736" opacity="1.000000" stroke="none" 
	d="
M352.389282,375.776428 
	C352.139618,346.190552 352.036407,316.218658 352.017487,286.246735 
	C351.993805,248.775772 352.039490,211.304779 352.122864,173.356277 
	C352.479218,175.160233 353.018433,177.441528 353.020050,179.723206 
	C353.064301,243.132004 353.057953,306.540833 353.032623,369.949677 
	C353.031891,371.763306 352.733002,373.576813 352.389282,375.776428 
z"/>
<path fill="#DE7526" opacity="1.000000" stroke="none" 
	d="
M76.926636,157.153595 
	C118.894981,157.114578 160.863327,157.074661 202.831680,157.047531 
	C203.311539,157.047226 203.791504,157.212631 204.665359,157.372955 
	C204.665359,171.745407 204.665359,186.145309 204.281540,200.759033 
	C203.932800,188.706558 203.873581,176.438828 204.057693,164.174774 
	C204.116577,160.252823 202.529922,158.984299 198.753036,158.958893 
	C187.042572,158.880188 175.333893,158.540359 162.805618,158.169266 
	C135.912888,158.018387 109.838982,158.020569 83.765297,157.946106 
	C81.485008,157.939606 79.206154,157.429688 76.926636,157.153595 
z"/>
<path fill="#E15900" opacity="1.000000" stroke="none" 
	d="
M365.840973,185.191437 
	C366.060822,239.407242 366.030243,293.747467 365.988708,348.559631 
	C365.657715,347.091217 365.060150,345.151123 365.057983,343.210388 
	C365.001312,291.860199 365.001740,240.509964 365.024994,189.159744 
	C365.025574,187.878357 365.393799,186.597153 365.840973,185.191437 
z"/>
<path fill="#000000" opacity="1.000000" stroke="none" 
	d="
M300.140961,342.856018 
	C297.395020,344.400848 294.618835,346.635162 292.142212,346.341675 
	C290.504425,346.147552 288.244873,342.348785 288.195068,340.120667 
	C288.146240,337.936768 290.063812,334.747437 292.008728,333.768585 
	C293.727905,332.903320 297.528687,333.707977 298.844849,335.177490 
	C300.259857,336.757355 299.851013,339.970703 300.140961,342.856018 
z"/>
<path fill="#CC520E" opacity="1.000000" stroke="none" 
	d="
M108.045326,202.843918 
	C107.879829,202.892426 107.714333,202.940918 107.291473,203.015778 
	C108.255363,202.388351 109.475082,201.167679 110.698112,201.164368 
	C136.082901,201.095276 161.468063,201.162064 186.853119,201.223877 
	C187.329010,201.225037 187.804230,201.491028 188.639252,201.834534 
	C181.314056,202.336166 173.629379,202.636719 165.104187,202.717224 
	C156.506363,202.609848 148.749084,202.722519 140.991806,202.835175 
	C140.825394,202.865326 140.658981,202.895477 139.867249,202.707047 
	C128.843079,202.606934 118.444206,202.725418 108.045326,202.843918 
z"/>
<path fill="#D66926" opacity="1.000000" stroke="none" 
	d="
M107.112366,341.450684 
	C139.340500,341.141479 171.723755,341.098602 204.544342,341.348663 
	C204.981689,341.641602 204.935745,342.072357 204.471176,342.063080 
	C173.346313,342.057587 142.686020,342.061371 112.025726,342.065155 
	C110.439644,341.949127 108.853569,341.833069 107.112366,341.450684 
z"/>
<path fill="#E05400" opacity="1.000000" stroke="none" 
	d="
M112.388199,342.252655 
	C142.686020,342.061371 173.346313,342.057587 204.486694,342.295227 
	C204.966797,342.536652 204.979279,343.002991 204.979279,343.002991 
	C176.375778,342.996521 147.772278,343.001648 119.168823,342.960205 
	C117.029198,342.957123 114.890038,342.621307 112.388199,342.252655 
z"/>
<path fill="#C67233" opacity="1.000000" stroke="none" 
	d="
M202.053314,288.975830 
	C200.530182,289.323517 199.007370,289.972626 197.483887,289.974152 
	C169.946655,290.001770 142.409332,289.951294 114.403969,289.827026 
	C116.224648,289.472107 118.512550,288.986267 120.802284,288.977386 
	C143.933624,288.887787 167.065262,288.876251 191.096100,288.860413 
	C194.264984,288.838867 196.534592,288.799713 198.804184,288.760559 
	C199.259644,288.745422 199.715088,288.730286 200.810760,288.778259 
	C201.651749,288.886230 201.852524,288.931030 202.053314,288.975830 
z"/>
<path fill="#E15B02" opacity="1.000000" stroke="none" 
	d="
M76.717293,157.092590 
	C79.206154,157.429688 81.485008,157.939606 83.765297,157.946106 
	C109.838982,158.020569 135.912888,158.018387 162.443909,158.051514 
	C160.954361,158.374634 159.008301,158.946198 157.060776,158.951248 
	C132.228241,159.015671 107.395363,159.029984 82.562958,158.945023 
	C80.523064,158.938049 78.485962,158.115585 76.259750,157.347260 
	C76.071930,157.022491 76.507950,157.031555 76.717293,157.092590 
z"/>
<path fill="#D24F05" opacity="1.000000" stroke="none" 
	d="
M244.130188,377.192169 
	C244.105621,375.691345 244.081070,374.190491 244.298325,371.980835 
	C244.689117,369.134399 244.955826,366.997498 244.968857,364.859100 
	C245.094925,344.153625 245.178391,323.447937 245.274033,302.742279 
	C245.466156,303.024536 245.658279,303.306793 245.933289,304.275757 
	C246.033646,308.620941 246.051117,312.279388 246.068604,315.937836 
	C246.067154,316.414185 246.065704,316.890564 246.057648,318.183289 
	C246.054413,330.311646 246.057785,341.623596 246.061172,352.935547 
	C246.049713,353.711731 246.038239,354.487885 246.022797,356.018005 
	C246.024048,357.505371 246.029251,358.238861 246.034454,358.972321 
	C246.030884,359.432098 246.027298,359.891876 246.021301,361.145782 
	C246.024200,364.961853 246.029526,367.983826 246.034851,371.005768 
	C246.039291,371.451477 246.043747,371.897156 246.174866,372.875641 
	C246.478836,373.666199 246.705399,373.868896 246.981232,374.016571 
	C246.981232,374.016571 246.973450,373.997040 246.951324,374.247681 
	C246.929199,374.498291 246.963806,374.976318 246.963806,374.976318 
	C246.963806,374.976318 246.975769,374.989502 246.783524,375.119080 
	C246.359467,375.462158 246.179977,375.713043 246.052811,376.001373 
	C245.794846,376.503174 245.536880,377.004974 244.961334,377.573059 
	C244.489059,377.471375 244.317871,377.322327 244.130188,377.192169 
z"/>
<path fill="#C1652F" opacity="1.000000" stroke="none" 
	d="
M245.219147,302.552673 
	C245.178391,323.447937 245.094925,344.153625 244.968857,364.859100 
	C244.955826,366.997498 244.689117,369.134399 244.357178,371.643372 
	C244.214523,348.838470 244.254822,325.662170 244.652115,302.242981 
	C245.009109,302.000092 245.164276,302.363068 245.219147,302.552673 
z"/>
<path fill="#E15900" opacity="1.000000" stroke="none" 
	d="
M54.210796,279.652466 
	C54.027515,261.010101 54.031525,241.998901 54.044777,222.526901 
	C54.363266,223.343277 54.937637,224.619598 54.941647,225.897720 
	C54.994434,242.718323 54.976135,259.539215 54.935413,276.359894 
	C54.933056,277.334900 54.585171,278.309052 54.210796,279.652466 
z"/>
<path fill="#FB6B0D" opacity="1.000000" stroke="none" 
	d="
M151.360291,248.268860 
	C167.383865,248.061996 183.682816,248.047867 200.469727,248.285233 
	C200.957672,248.536728 200.977921,249.016037 200.977921,249.016037 
	C185.789185,249.165146 170.600555,249.338699 155.411469,249.418350 
	C154.154587,249.424957 152.894363,248.795532 151.360291,248.268860 
z"/>
<path fill="#C86724" opacity="1.000000" stroke="none" 
	d="
M105.749756,304.541504 
	C105.988914,316.157318 106.014778,328.100647 106.101776,340.509338 
	C105.480423,339.946686 104.180710,338.900696 104.210197,337.893585 
	C104.532684,326.881897 105.062798,315.876312 105.749756,304.541504 
z"/>
<path fill="#E05400" opacity="1.000000" stroke="none" 
	d="
M200.985535,249.482971 
	C200.977921,249.016037 200.957672,248.536728 200.932404,248.298584 
	C201.075668,248.050583 201.244217,248.040726 201.690277,248.489319 
	C201.968842,262.303406 201.969879,275.659058 201.970901,289.014709 
	C201.970901,289.014709 201.992920,288.955322 202.023117,288.965576 
	C201.852524,288.931030 201.651749,288.886230 201.151947,288.757874 
	C200.899673,275.766235 200.946426,262.858063 200.985535,249.482971 
z"/>
<path fill="#DD4A01" opacity="1.000000" stroke="none" 
	d="
M51.630669,183.768738 
	C40.546661,183.980042 29.101183,184.019302 17.655895,183.988037 
	C16.021778,183.983582 14.388592,183.637527 12.404456,183.242416 
	C25.125711,183.214874 38.197483,183.394516 51.630669,183.768738 
z"/>
<path fill="#C67233" opacity="1.000000" stroke="none" 
	d="
M243.828445,377.493866 
	C244.317871,377.322327 244.489059,377.471375 244.753189,377.767212 
	C244.862625,377.895050 244.850754,378.383423 244.399384,378.655212 
	C231.970993,378.967438 219.993958,379.007904 208.016922,379.048340 
	C208.002823,378.849243 207.988739,378.650146 207.965012,378.150879 
	C219.812469,377.832306 231.669586,377.813934 243.828445,377.493866 
z"/>
<path fill="#D95205" opacity="1.000000" stroke="none" 
	d="
M208.375732,379.245239 
	C219.993958,379.007904 231.970993,378.967438 244.401398,378.899475 
	C243.937378,379.218689 243.017639,379.872467 242.102936,379.865509 
	C230.979706,379.780792 219.857208,379.598816 208.375732,379.245239 
z"/>
<path fill="#E15900" opacity="1.000000" stroke="none" 
	d="
M54.243393,219.591217 
	C54.036682,208.617493 54.019768,197.284622 53.983536,185.485199 
	C54.307911,187.951996 54.948799,190.886353 54.939026,193.818542 
	C54.910789,202.290176 54.620552,210.760956 54.243393,219.591217 
z"/>
<path fill="#FB6B0D" opacity="1.000000" stroke="none" 
	d="
M246.246063,352.575928 
	C246.057785,341.623596 246.054413,330.311646 246.065811,318.540466 
	C246.388123,322.676971 246.931107,327.271820 246.947632,331.868591 
	C246.972031,338.650452 246.621704,345.433655 246.246063,352.575928 
z"/>
<path fill="#FB6B0D" opacity="1.000000" stroke="none" 
	d="
M112.368874,248.216293 
	C123.015244,248.029877 134.009750,248.031509 145.464142,248.048904 
	C137.491287,248.424072 129.060806,248.866776 120.624504,249.093552 
	C117.996742,249.164185 115.353287,248.650513 112.368874,248.216293 
z"/>
<path fill="#CC520E" opacity="1.000000" stroke="none" 
	d="
M106.698868,203.207703 
	C106.759094,208.452026 106.475769,213.869476 105.965858,219.655090 
	C105.944618,214.475784 106.149971,208.928329 106.698868,203.207703 
z"/>
<path fill="#C67233" opacity="1.000000" stroke="none" 
	d="
M318.314148,378.174957 
	C328.350281,377.959839 338.732544,377.980988 349.583069,378.080566 
	C339.587646,378.243042 329.123932,378.327148 318.314148,378.174957 
z"/>
<path fill="#FB6B0D" opacity="1.000000" stroke="none" 
	d="
M246.246582,315.621063 
	C246.051117,312.279388 246.033646,308.620941 246.041351,304.508636 
	C246.185852,307.804626 246.305191,311.554443 246.246582,315.621063 
z"/>
<path fill="#C95914" opacity="1.000000" stroke="none" 
	d="
M205.124573,343.327393 
	C204.979279,343.002991 204.966797,342.536652 204.951263,342.304504 
	C204.935745,342.072357 204.981689,341.641602 205.009689,341.426819 
	C205.677170,343.547302 206.316650,345.882629 206.865814,348.631561 
	C206.273590,347.247406 205.771729,345.449615 205.124573,343.327393 
z"/>
<path fill="#FB6B0D" opacity="1.000000" stroke="none" 
	d="
M246.217255,370.656403 
	C246.029526,367.983826 246.024200,364.961853 246.029831,361.490570 
	C246.160416,364.129822 246.280045,367.218445 246.217255,370.656403 
z"/>
<path fill="#E15B02" opacity="1.000000" stroke="none" 
	d="
M75.695816,154.002411 
	C75.895508,154.864944 75.841858,155.634598 75.870453,156.666763 
	C75.123085,156.379272 74.293457,155.829285 73.463837,155.279282 
	C74.123383,154.822708 74.782928,154.366135 75.695816,154.002411 
z"/>
<path fill="#E05400" opacity="1.000000" stroke="none" 
	d="
M198.483170,288.620361 
	C196.534592,288.799713 194.264984,288.838867 191.573761,288.838013 
	C193.488800,288.692017 195.825470,288.586090 198.483170,288.620361 
z"/>
<path fill="#C95914" opacity="1.000000" stroke="none" 
	d="
M206.622833,351.259644 
	C206.832977,352.382263 206.886505,353.800018 206.848175,355.636322 
	C206.659637,354.554840 206.562943,353.054840 206.622833,351.259644 
z"/>
<path fill="#FB6B0D" opacity="1.000000" stroke="none" 
	d="
M246.183197,358.747498 
	C246.029251,358.238861 246.024048,357.505371 246.031433,356.406067 
	C246.139969,356.867706 246.235947,357.695221 246.183197,358.747498 
z"/>
<path fill="#C95914" opacity="1.000000" stroke="none" 
	d="
M206.630020,369.189575 
	C206.828461,369.725891 206.890671,370.503235 206.865189,371.663513 
	C206.682922,371.174500 206.588364,370.302551 206.630020,369.189575 
z"/>
<path fill="#D24F05" opacity="1.000000" stroke="none" 
	d="
M245.384155,301.002289 
	C245.186508,300.874115 245.136292,300.699860 245.140564,300.259521 
	C245.307220,300.314331 245.419388,300.635284 245.384155,301.002289 
z"/>
<path fill="#C95914" opacity="1.000000" stroke="none" 
	d="
M206.629791,363.136475 
	C206.813812,363.414490 206.873337,363.886932 206.843658,364.708527 
	C206.671387,364.482086 206.588348,363.906494 206.629791,363.136475 
z"/>
<path fill="#CC520E" opacity="1.000000" stroke="none" 
	d="
M194.846054,201.688400 
	C194.573380,201.865997 194.110870,201.921982 193.306458,201.895752 
	C193.528442,201.731277 194.092331,201.649048 194.846054,201.688400 
z"/>
<path fill="#FB6B0D" opacity="1.000000" stroke="none" 
	d="
M246.843857,373.836426 
	C246.705399,373.868896 246.478836,373.666199 246.187531,373.209717 
	C246.302719,373.208252 246.513702,373.423340 246.843857,373.836426 
z"/>
<path fill="#D95910" opacity="1.000000" stroke="none" 
	d="
M130.927246,388.874329 
	C130.874542,388.944641 130.689056,388.949341 130.225250,388.940216 
	C130.214645,388.765594 130.497162,388.726349 130.927246,388.874329 
z"/>
<path fill="#C67233" opacity="1.000000" stroke="none" 
	d="
M317.096497,377.105164 
	C317.288422,377.059662 317.597748,377.261627 317.990143,377.733948 
	C317.786774,377.787079 317.500366,377.569855 317.096497,377.105164 
z"/>
<path fill="#FB6B0D" opacity="1.000000" stroke="none" 
	d="
M246.221069,375.845978 
	C246.179977,375.713043 246.359467,375.462158 246.784424,375.118591 
	C246.801758,375.239502 246.605682,375.473511 246.221069,375.845978 
z"/>
<path fill="#C95914" opacity="1.000000" stroke="none" 
	d="
M206.977859,375.247833 
	C207.149170,375.279358 207.305588,375.581909 207.236572,375.972015 
	C206.995071,375.879333 206.979019,375.699097 206.977859,375.247833 
z"/>
<path fill="#FB6B0D" opacity="1.000000" stroke="none" 
	d="
M247.036102,374.864777 
	C246.963806,374.976318 246.929199,374.498291 246.944946,374.258881 
	C247.149902,374.240662 247.199127,374.485260 247.036102,374.864777 
z"/>
<path fill="#CC520E" opacity="1.000000" stroke="none" 
	d="
M190.804321,202.037231 
	C190.761673,202.210739 190.422516,202.373413 189.999023,202.289917 
	C190.112396,202.037964 190.310120,202.032181 190.804321,202.037231 
z"/>
<path fill="#F06C03" opacity="1.000000" stroke="none" 
	d="
M297.993683,159.025909 
	C300.358978,159.052216 302.724304,159.078522 305.648132,159.250656 
	C306.206635,159.396484 306.637360,159.429840 306.637360,159.429840 
	C306.637360,159.429840 307.022247,159.236053 307.022247,159.236053 
	C308.081360,159.198425 309.140472,159.160782 310.861938,159.441574 
	C312.022980,161.436188 312.895599,163.099915 312.951935,164.790848 
	C313.138794,170.398697 312.864960,176.023315 313.100525,181.627533 
	C313.239624,184.937408 312.065948,186.981659 308.507355,187.998383 
	C301.721344,187.950363 295.402069,187.897034 289.061066,187.391174 
	C289.030792,177.953964 289.022247,168.969284 289.009521,159.988998 
	C289.005310,159.993408 289.000000,160.000412 289.434509,160.003540 
	C292.577240,159.679749 295.285461,159.352829 297.993683,159.025909 
z"/>
<path fill="#F16C03" opacity="1.000000" stroke="none" 
	d="
M295.987396,197.201767 
	C298.702911,197.167175 301.418457,197.132584 304.692383,197.230316 
	C305.250763,197.362671 305.638550,197.387085 305.638550,197.387085 
	C305.638550,197.387085 305.985138,197.212524 305.985138,197.212524 
	C306.439789,197.173721 306.894470,197.134933 307.796539,197.223007 
	C308.243958,197.349869 308.629974,197.379440 308.629974,197.379440 
	C308.629974,197.379440 308.979614,197.215240 308.979614,197.215240 
	C310.044739,197.178619 311.109894,197.141998 312.577393,197.623901 
	C312.986145,205.288498 312.840393,212.439178 313.057037,219.578873 
	C313.183197,223.735703 311.497406,225.197845 307.459442,225.061066 
	C301.317352,224.853012 295.163330,224.997757 289.012024,224.524719 
	C289.032715,215.117538 289.055756,206.178329 289.078827,197.239120 
	C290.779053,197.188843 292.479279,197.138580 294.712769,197.217896 
	C295.246063,197.347488 295.636139,197.371826 295.636139,197.371826 
	C295.636139,197.371826 295.987396,197.201767 295.987396,197.201767 
z"/>
<path fill="#D45B11" opacity="1.000000" stroke="none" 
	d="
M280.066772,196.997467 
	C280.380951,197.040268 280.619415,197.197708 280.557678,197.720062 
	C280.333099,197.970322 279.877502,198.028870 279.638184,198.029846 
	C279.398865,198.030838 278.918396,198.049530 278.455017,198.036743 
	C271.505737,198.019272 265.019714,198.032593 258.533936,198.001312 
	C255.822556,197.988235 254.013275,198.854584 254.029053,201.958084 
	C254.062897,208.609879 253.877228,215.269745 254.187149,221.907349 
	C254.249832,223.249756 256.094849,225.617188 257.136658,225.627441 
	C264.401062,225.698776 271.670349,225.273804 279.203857,225.007782 
	C279.646851,225.003922 279.824036,225.000137 280.008362,225.269165 
	C280.018951,225.723923 280.022369,225.905838 280.025818,226.087769 
	C276.338165,226.397247 272.654388,226.893951 268.961884,226.970917 
	C263.834229,227.077744 258.700012,226.869614 253.283539,225.986206 
	C252.981827,217.371216 253.043640,209.564987 252.912201,201.762039 
	C252.854782,198.354156 254.286377,196.954742 257.648621,196.990814 
	C265.120483,197.070984 272.593964,197.004303 280.066772,196.997467 
z"/>
<path fill="#D66926" opacity="1.000000" stroke="none" 
	d="
M289.082764,187.843704 
	C295.402069,187.897034 301.721344,187.950363 308.921997,187.995346 
	C313.112549,188.193359 314.057159,186.314499 314.017517,183.381912 
	C313.908875,175.338043 313.871185,167.293198 313.805420,159.248749 
	C314.198242,159.836533 314.928619,160.421631 314.933350,161.012497 
	C315.005829,170.105560 314.983917,179.199341 314.983917,188.751526 
	C305.963226,188.751526 297.211792,188.751526 288.269470,188.360260 
	C288.078552,187.968994 288.175293,187.871475 288.402344,187.870605 
	C288.629395,187.869720 289.082764,187.843704 289.082764,187.843704 
z"/>
<path fill="#C66E38" opacity="1.000000" stroke="none" 
	d="
M279.833313,196.626358 
	C272.593964,197.004303 265.120483,197.070984 257.648621,196.990814 
	C254.286377,196.954742 252.854782,198.354156 252.912201,201.762039 
	C253.043640,209.564987 252.981827,217.371216 253.016632,225.657196 
	C252.695221,224.445602 252.083893,222.756348 252.062363,221.059631 
	C251.959351,212.942596 252.016174,204.823547 252.016174,196.255249 
	C261.476837,196.255249 270.538361,196.255249 279.833313,196.626358 
z"/>
<path fill="#DA6F25" opacity="1.000000" stroke="none" 
	d="
M313.905396,197.190582 
	C314.261597,197.640106 314.925629,198.087616 314.928558,198.539413 
	C314.988953,207.808258 314.973969,217.077576 314.973969,226.950958 
	C306.406830,226.950958 298.168579,226.950958 289.472534,226.696747 
	C289.014801,226.442551 289.017273,226.078506 289.014954,226.051147 
	C289.012604,226.023788 289.003815,225.969574 289.472107,225.982193 
	C295.931213,225.995621 301.930450,225.802689 307.910126,226.061432 
	C312.319031,226.252213 314.301422,224.895767 314.097473,220.150528 
	C313.769043,212.508575 313.943451,204.845016 313.905396,197.190582 
z"/>
<path fill="#E05903" opacity="1.000000" stroke="none" 
	d="
M313.667542,197.143433 
	C313.943451,204.845016 313.769043,212.508575 314.097473,220.150528 
	C314.301422,224.895767 312.319031,226.252213 307.910126,226.061432 
	C301.930450,225.802689 295.931213,225.995621 289.473328,225.738098 
	C289.006287,225.481384 289.014374,224.992676 289.014374,224.992676 
	C295.163330,224.997757 301.317352,224.853012 307.459442,225.061066 
	C311.497406,225.197845 313.183197,223.735703 313.057037,219.578873 
	C312.840393,212.439178 312.986145,205.288498 312.972382,197.688812 
	C312.964996,197.235184 313.429688,197.096298 313.667542,197.143433 
z"/>
<path fill="#DD4A01" opacity="1.000000" stroke="none" 
	d="
M279.646362,188.832138 
	C279.646362,188.832138 279.396729,188.948029 278.889160,188.707336 
	C273.936737,188.292084 269.491821,188.117523 265.405151,187.756622 
	C268.240601,187.393555 270.734955,186.945206 273.191223,187.100250 
	C277.461456,187.369781 279.212952,185.780289 279.073151,181.366394 
	C278.857208,174.547440 279.108795,167.713699 279.346222,161.263000 
	C279.569031,170.703888 279.607697,179.768021 279.646362,188.832138 
z"/>
<path fill="#DA6F25" opacity="1.000000" stroke="none" 
	d="
M202.337448,288.780670 
	C201.969879,275.659058 201.968842,262.303406 201.943405,248.480835 
	C201.936234,247.823639 201.953445,247.633362 201.977142,247.156067 
	C202.324371,247.548401 202.963806,248.228683 202.961700,248.906967 
	C202.920563,262.120331 202.804626,275.333466 202.337448,288.780670 
z"/>
<path fill="#D95205" opacity="1.000000" stroke="none" 
	d="
M313.460602,159.161224 
	C313.871185,167.293198 313.908875,175.338043 314.017517,183.381912 
	C314.057159,186.314499 313.112549,188.193359 309.388672,187.990051 
	C312.065948,186.981659 313.239624,184.937408 313.100525,181.627533 
	C312.864960,176.023315 313.138794,170.398697 312.951935,164.790848 
	C312.895599,163.099915 312.022980,161.436188 311.256317,159.496674 
	C311.697479,159.180099 312.406647,159.126892 313.460602,159.161224 
z"/>
<path fill="#D25F24" opacity="1.000000" stroke="none" 
	d="
M288.021179,188.006714 
	C287.640808,184.186630 287.174347,180.334091 287.032379,176.469635 
	C286.867523,171.982086 287.211517,167.469360 286.917694,162.994965 
	C286.648529,158.895905 288.366241,157.527542 292.310638,158.336487 
	C291.300079,159.051514 290.150024,159.525970 289.000000,160.000412 
	C289.000000,160.000412 289.005310,159.993408 288.785645,160.340439 
	C288.435760,169.748810 288.305542,178.810135 288.175293,187.871475 
	C288.175293,187.871475 288.078552,187.968994 288.021179,188.006714 
z"/>
<path fill="#DD4A01" opacity="1.000000" stroke="none" 
	d="
M289.012024,224.524719 
	C289.014374,224.992676 289.006287,225.481384 289.005066,225.725479 
	C289.003815,225.969574 289.012604,226.023788 288.804138,225.685028 
	C288.397858,222.592667 288.173645,219.840683 288.007965,217.085159 
	C287.705597,212.056290 287.437927,207.025345 287.155823,201.995255 
	C287.531189,200.368637 287.906525,198.742004 288.680359,197.177246 
	C289.055756,206.178329 289.032715,215.117538 289.012024,224.524719 
z"/>
<path fill="#D25F24" opacity="1.000000" stroke="none" 
	d="
M108.507393,202.902618 
	C118.444206,202.725418 128.843079,202.606934 139.619171,202.653915 
	C129.654083,202.866684 119.311775,202.914001 108.507393,202.902618 
z"/>
<path fill="#D25F24" opacity="1.000000" stroke="none" 
	d="
M280.087585,188.724915 
	C279.607697,179.768021 279.569031,170.703888 279.322815,161.059723 
	C279.115234,160.479691 279.060730,160.072067 279.205994,159.923584 
	C279.536530,159.568115 279.690308,159.339874 279.847290,159.052917 
	C279.882080,159.015442 279.970886,158.964828 279.970886,158.964828 
	C280.317169,160.140091 280.970184,161.317810 280.960754,162.490204 
	C280.890686,171.199966 280.689117,179.908646 280.087585,188.724915 
z"/>
<path fill="#C66E38" opacity="1.000000" stroke="none" 
	d="
M252.971558,188.017197 
	C252.651077,185.315277 252.081406,182.615402 252.059052,179.911011 
	C252.002701,173.093842 252.193024,166.274628 252.679123,159.243317 
	C253.073761,159.030426 253.096054,159.074295 253.078751,159.537155 
	C253.085953,169.320099 253.110458,178.640182 253.101074,187.994507 
	C253.067184,188.028732 252.971558,188.017197 252.971558,188.017197 
z"/>
<path fill="#D15920" opacity="1.000000" stroke="none" 
	d="
M280.377625,225.830078 
	C280.022369,225.905838 280.018951,225.723923 280.015747,224.800980 
	C279.969818,215.382919 279.923645,206.705902 279.877502,198.028870 
	C279.877502,198.028870 280.333099,197.970322 280.560822,197.940460 
	C280.768829,207.131210 280.749115,216.351807 280.377625,225.830078 
z"/>
<path fill="#C97736" opacity="1.000000" stroke="none" 
	d="
M253.051025,159.021057 
	C255.706665,158.674881 258.381897,158.085938 261.064087,158.052139 
	C267.207794,157.974670 273.354858,158.168259 279.735718,158.608307 
	C279.970886,158.964828 279.882080,159.015442 279.397430,159.015625 
	C270.307190,159.035294 261.701630,159.054794 253.096054,159.074295 
	C253.096054,159.074295 253.073761,159.030426 253.051025,159.021057 
z"/>
<path fill="#D15920" opacity="1.000000" stroke="none" 
	d="
M287.091431,202.461166 
	C287.437927,207.025345 287.705597,212.056290 288.007965,217.085159 
	C288.173645,219.840683 288.397858,222.592667 288.806458,225.712372 
	C289.017273,226.078506 289.014801,226.442551 289.009033,226.624481 
	C288.329193,225.613510 287.103638,224.434860 287.072418,223.225342 
	C286.897736,216.463379 287.011719,209.693954 287.091431,202.461166 
z"/>
<path fill="#DE7526" opacity="1.000000" stroke="none" 
	d="
M265.046936,187.942947 
	C269.491821,188.117523 273.936737,188.292084 278.760529,188.658508 
	C270.567780,188.820587 261.996124,188.790787 253.198013,188.389099 
	C252.971558,188.017197 253.067184,188.028732 253.440308,187.985123 
	C254.491821,187.928131 255.170227,187.914749 256.308533,187.922913 
	C259.527954,187.943954 262.287445,187.943451 265.046936,187.942947 
z"/>
<path fill="#D25F24" opacity="1.000000" stroke="none" 
	d="
M141.458221,202.902618 
	C148.749084,202.722519 156.506363,202.609848 164.638199,202.672043 
	C157.316711,202.887970 149.620667,202.929031 141.458221,202.902618 
z"/>
<path fill="#D95205" opacity="1.000000" stroke="none" 
	d="
M289.434509,160.003540 
	C290.150024,159.525970 291.300079,159.051514 292.728271,158.424057 
	C294.531616,158.304459 296.056732,158.337845 297.787781,158.698578 
	C295.285461,159.352829 292.577240,159.679749 289.434509,160.003540 
z"/>
<path fill="#E05903" opacity="1.000000" stroke="none" 
	d="
M308.742645,197.141464 
	C308.979614,197.215240 308.629974,197.379440 308.629974,197.379440 
	C308.629974,197.379440 308.243958,197.349869 308.135803,197.275787 
	C308.027679,197.201721 308.505676,197.067688 308.742645,197.141464 
z"/>
<path fill="#E05903" opacity="1.000000" stroke="none" 
	d="
M295.746704,197.133942 
	C295.987396,197.201767 295.636139,197.371826 295.636139,197.371826 
	C295.636139,197.371826 295.246063,197.347488 295.135406,197.274811 
	C295.185181,197.156784 295.345581,197.111450 295.746704,197.133942 
z"/>
<path fill="#D95205" opacity="1.000000" stroke="none" 
	d="
M306.759247,159.164642 
	C307.022247,159.236053 306.637360,159.429840 306.637360,159.429840 
	C306.637360,159.429840 306.206635,159.396484 306.086945,159.310577 
	C306.143585,159.180832 306.319916,159.137024 306.759247,159.164642 
z"/>
<path fill="#E05903" opacity="1.000000" stroke="none" 
	d="
M305.747009,197.145630 
	C305.985138,197.212524 305.638550,197.387085 305.638550,197.387085 
	C305.638550,197.387085 305.250763,197.362671 305.141968,197.288620 
	C305.033142,197.214569 305.508881,197.078720 305.747009,197.145630 
z"/>
<path fill="#DD4A01" opacity="1.000000" stroke="none" 
	d="
M288.402344,187.870605 
	C288.305542,178.810135 288.435760,169.748810 288.789856,160.336029 
	C289.022247,168.969284 289.030792,177.953964 289.061066,187.391174 
	C289.082764,187.843704 288.629395,187.869720 288.402344,187.870605 
z"/>
<path fill="#F16C03" opacity="1.000000" stroke="none" 
	d="
M278.938049,225.007858 
	C271.670349,225.273804 264.401062,225.698776 257.136658,225.627441 
	C256.094849,225.617188 254.249832,223.249756 254.187149,221.907349 
	C253.877228,215.269745 254.062897,208.609879 254.029053,201.958084 
	C254.013275,198.854584 255.822556,197.988235 258.533936,198.001312 
	C265.019714,198.032593 271.505737,198.019272 278.479858,198.499664 
	C278.958069,207.652863 278.948059,216.330353 278.938049,225.007858 
z"/>
<path fill="#DD4A01" opacity="1.000000" stroke="none" 
	d="
M279.203857,225.007782 
	C278.948059,216.330353 278.958069,207.652863 278.943237,198.512451 
	C278.918396,198.049530 279.398865,198.030838 279.638184,198.029846 
	C279.923645,206.705902 279.969818,215.382919 280.008606,224.528137 
	C279.824036,225.000137 279.646851,225.003922 279.203857,225.007782 
z"/>
<path fill="#F16C03" opacity="1.000000" stroke="none" 
	d="
M265.405151,187.756622 
	C262.287445,187.943451 259.527954,187.943954 256.077393,187.635773 
	C254.932861,185.782120 254.128952,184.246353 254.087997,182.690521 
	C253.930801,176.715836 254.135666,170.731522 253.971771,164.757202 
	C253.868103,160.978058 255.653778,159.831406 259.133911,159.915817 
	C265.773529,160.076859 272.418182,160.031662 279.060730,160.072067 
	C279.060730,160.072067 279.115234,160.479691 279.138672,160.682953 
	C279.108795,167.713699 278.857208,174.547440 279.073151,181.366394 
	C279.212952,185.780289 277.461456,187.369781 273.191223,187.100250 
	C270.734955,186.945206 268.240601,187.393555 265.405151,187.756622 
z"/>
<path fill="#D24F05" opacity="1.000000" stroke="none" 
	d="
M279.205994,159.923584 
	C272.418182,160.031662 265.773529,160.076859 259.133911,159.915817 
	C255.653778,159.831406 253.868103,160.978058 253.971771,164.757202 
	C254.135666,170.731522 253.930801,176.715836 254.087997,182.690521 
	C254.128952,184.246353 254.932861,185.782120 255.617493,187.614227 
	C255.170227,187.914749 254.491821,187.928131 253.474197,187.950897 
	C253.110458,178.640182 253.085953,169.320099 253.078751,159.537155 
	C261.701630,159.054794 270.307190,159.035294 279.362671,159.053085 
	C279.690308,159.339874 279.536530,159.568115 279.205994,159.923584 
z"/>
</svg>