<?xml version="1.0" encoding="UTF-8"?>
<svg version="1.1" xmlns="http://www.w3.org/2000/svg" width="1024" height="1024">
<path d="M0 0 C337.92 0 675.84 0 1024 0 C1024 337.92 1024 675.84 1024 1024 C686.08 1024 348.16 1024 0 1024 C0 686.08 0 348.16 0 0 Z " fill="#FDF1DC" transform="translate(0,0)"/>
<path d="M0 0 C2.59765625 1.546875 2.59765625 1.546875 5.0625 3.75 C6.47208984 4.97976562 6.47208984 4.97976562 7.91015625 6.234375 C8.65676514 6.90436523 8.65676514 6.90436523 9.41845703 7.58789062 C11.65185299 9.58201879 13.92962205 11.52259711 16.20605469 13.46728516 C17.41028473 14.4961578 18.61273816 15.5271132 19.81347656 16.56005859 C24.14355601 20.28487081 28.53274815 23.92813252 32.96484375 27.53125 C42.50534713 35.29135056 51.99792853 43.10939113 61.36938477 51.07299805 C66.87984242 55.75535516 72.43938719 60.37732188 78 65 C78.33 56.75 78.66 48.5 79 40 C85.08742662 39.95415327 91.1742572 39.91430866 97.26171875 39.89013672 C99.33367947 39.88006288 101.40562593 39.86640334 103.47753906 39.84912109 C106.45120764 39.82493336 109.4246887 39.81353092 112.3984375 39.8046875 C113.79381241 39.78920364 113.79381241 39.78920364 115.21737671 39.77340698 C116.07811798 39.77325592 116.93885925 39.77310486 117.82568359 39.77294922 C118.58513275 39.768508 119.34458191 39.76406677 120.12704468 39.75949097 C122 40 122 40 124 42 C124.17080688 44.5827179 124.17080688 44.5827179 124.06494141 47.89575195 C124.01728134 49.75457756 124.01728134 49.75457756 123.96865845 51.6509552 C123.94851307 52.31613474 123.92836769 52.98131428 123.90761185 53.66665077 C123.81181151 57.20751075 123.78599065 60.7491309 123.75 64.29101562 C123.70248448 68.79134414 123.63455926 73.28747733 123.47558594 77.78540039 C122.09326205 95.3693218 122.09326205 95.3693218 128.44873047 110.77587891 C131.69911361 113.69385759 135.18453993 115.90652187 139.04762268 117.92437744 C141.97451051 119.53688674 144.33932426 121.57940407 146.875 123.75 C148.17630859 124.81347656 148.17630859 124.81347656 149.50390625 125.8984375 C151.9991697 127.99930094 154.40894596 130.17011898 156.8125 132.375 C160.73467432 135.9542179 164.80466883 139.25290934 169 142.5 C174.10738168 146.45476709 178.99155116 150.55863832 183.75 154.93359375 C185.92667643 156.93265943 188.14082146 158.87812851 190.375 160.8125 C191.01179688 161.37582031 191.64859375 161.93914062 192.3046875 162.51953125 C193.67331171 163.7147123 195.08113968 164.86491174 196.5 166 C198.77269583 169.03026111 198.46680492 171.33224703 198 175 C196.99682617 176.68286133 196.99682617 176.68286133 195 178 C192.1373454 178.33120542 189.48033396 178.48864092 186.61328125 178.51171875 C185.79627243 178.52966995 184.97926361 178.54762115 184.13749695 178.56611633 C181.52921706 178.62027788 178.92112075 178.65413308 176.3125 178.6875 C174.54359421 178.72066799 172.77471267 178.75515717 171.00585938 178.79101562 C166.67070527 178.87600746 162.33560616 178.94279035 158 179 C158.00276538 180.0261375 158.00553076 181.05227499 158.00837994 182.10950756 C158.07494192 207.06339381 158.12425985 232.01726855 158.15543652 256.97122478 C158.17091357 269.03870992 158.19201915 281.10613646 158.22631836 293.17358398 C158.256195 303.69004521 158.2755689 314.20646401 158.28226548 324.72296649 C158.28618067 330.2927528 158.29539941 335.8624177 158.31719017 341.43216515 C158.33752784 346.6728797 158.34383928 351.91342263 158.33932304 357.1541729 C158.34014946 359.07908816 158.34613124 361.00400906 158.35761642 362.92889023 C158.37251796 365.55478991 158.36896219 368.1800396 158.36076355 370.80595398 C158.36950207 371.56957943 158.3782406 372.33320488 158.38724393 373.1199705 C158.34901307 377.6427529 157.79351374 380.42477985 155 384 C152.6483888 384.62444448 152.6483888 384.62444448 149.81067562 384.62361908 C148.72956664 384.63542442 147.64845766 384.64722976 146.5345878 384.65939283 C145.34238754 384.64687499 144.15018728 384.63435714 142.92185974 384.62145996 C141.65888992 384.62784878 140.3959201 384.6342376 139.09467846 384.64082003 C135.58198267 384.65786534 132.06999616 384.64359394 128.5573374 384.62430525 C124.77201186 384.60891757 120.98677548 384.62226982 117.20144653 384.63204956 C109.78352297 384.64659867 102.36587247 384.63431985 94.94797473 384.61293632 C86.31640697 384.58896428 77.68490228 384.59063831 69.05330861 384.59324223 C53.65698288 384.59693495 38.2607861 384.57608429 22.86450195 384.54199219 C7.9113438 384.50889341 -7.041679 384.49473455 -21.99487305 384.50097656 C-38.26415404 384.50773452 -54.53337827 384.50529773 -70.80265087 384.48561716 C-71.66225753 384.48457768 -72.52186419 384.48353819 -73.40751953 384.4824672 C-75.13417931 384.48037625 -76.86083907 384.47826528 -78.5874988 384.47613403 C-84.60990248 384.46922732 -90.6322887 384.46857095 -96.65469551 384.47001648 C-103.98918025 384.47145344 -111.32355434 384.46181554 -118.65800232 384.43807012 C-122.40303423 384.42617782 -126.14791156 384.41910627 -129.8929615 384.42490768 C-133.94508227 384.43099951 -137.99676545 384.41397588 -142.04884338 384.39440918 C-143.24327437 384.39973711 -144.43770535 384.40506503 -145.66833121 384.41055441 C-146.74683244 384.40149777 -147.82533367 384.39244113 -148.93651676 384.38311005 C-149.87279976 384.38153884 -150.80908276 384.37996764 -151.77373797 384.37834883 C-152.50840444 384.25349371 -153.24307091 384.1286386 -154 384 C-156.51021105 380.23468343 -156.27301612 377.29121275 -156.24050903 372.93257141 C-156.24221788 372.10104701 -156.24392673 371.2695226 -156.24568737 370.41280049 C-156.24899088 367.61666637 -156.23796441 364.82077035 -156.22705078 362.0246582 C-156.22648685 360.02424119 -156.22680287 358.02382376 -156.22793579 356.02340698 C-156.22851102 350.58363942 -156.21672913 345.14395956 -156.20278788 339.70421243 C-156.19030891 334.02271736 -156.18911226 328.34122041 -156.18673706 322.65971375 C-156.18051395 311.89688174 -156.16409189 301.13409023 -156.14403808 290.37127608 C-156.12170493 278.11993377 -156.11069216 265.86858955 -156.10064721 253.61723197 C-156.07972638 228.4114655 -156.04453427 203.20573502 -156 178 C-157.97577026 178.02356567 -157.97577026 178.02356567 -159.99145508 178.04760742 C-164.87225239 178.10185386 -169.753023 178.1363309 -174.6340332 178.16479492 C-176.74768554 178.1798936 -178.86130648 178.20037426 -180.97485352 178.22631836 C-184.01065815 178.26265397 -187.04604906 178.27971544 -190.08203125 178.29296875 C-191.5024749 178.31619453 -191.5024749 178.31619453 -192.95161438 178.33988953 C-194.27264412 178.34022942 -194.27264412 178.34022942 -195.62036133 178.34057617 C-196.39535477 178.34723801 -197.17034821 178.35389984 -197.96882629 178.36076355 C-200.56700355 177.8992926 -201.42762156 177.08995024 -203 175 C-203.625 171.75 -203.625 171.75 -203 168 C-201.00750478 165.27088534 -198.56624198 163.18130568 -196 161 C-195.4328125 160.49210938 -194.865625 159.98421875 -194.28125 159.4609375 C-192.20854412 157.615502 -190.10384337 155.80989979 -188 154 C-186.84708877 152.99544258 -185.69479865 151.99017209 -184.54296875 150.984375 C-178.92102371 146.08181891 -173.29664663 141.19623688 -167.5 136.5 C-161.16800484 131.36873873 -155.04710553 126.00143725 -148.90087891 120.65087891 C-140.95633072 113.75118267 -132.93994734 106.93468727 -124.8984375 100.1484375 C-120.870968 96.74659433 -116.87086357 93.31387101 -112.875 89.875 C-107.81948348 85.52560007 -102.68996255 81.28119588 -97.51171875 77.078125 C-94.36734253 74.47655712 -91.3413017 71.7573215 -88.30859375 69.02734375 C-85.77758409 66.80468045 -83.18087034 64.68143364 -80.5625 62.5625 C-76.08146748 58.92906195 -71.79404751 55.13508128 -67.53125 51.25 C-64.02200514 48.13067124 -60.36837877 45.20250867 -56.71875 42.25 C-54.07852271 40.06498431 -51.5327028 37.80828609 -49 35.5 C-44.70008209 31.58108748 -40.24080453 27.90829131 -35.71875 24.25 C-33.07852271 22.06498431 -30.5327028 19.80828609 -28 17.5 C-22.83118151 12.79283037 -17.44886579 8.37750662 -12 4 C-11.21238281 3.25363281 -10.42476562 2.50726563 -9.61328125 1.73828125 C-6.13494819 -0.57540816 -4.10530622 -0.56751167 0 0 Z " fill="#EF6B01" transform="translate(514,222)"/>
<path d="M0 0 C3.44779086 1.50006391 5.82360533 3.50409262 8.5625 6.0625 C12.02560159 9.23785117 15.53195256 12.29828184 19.1875 15.25 C25.62548906 20.46386438 31.85163566 25.91041253 38.09912109 31.34912109 C47.12606819 39.18886118 56.2467445 46.91974931 65.38232422 54.63232422 C67.02908979 56.02459417 68.67310067 57.42005473 70.31640625 58.81640625 C71.41915724 59.75273796 72.52202128 60.68893655 73.625 61.625 C74.16576172 62.08398682 74.70652344 62.54297363 75.26367188 63.01586914 C78.66037871 65.89044011 82.09827564 68.70675166 85.5625 71.5 C90.04415882 75.1425674 94.28972381 78.97879254 98.51538086 82.90966797 C102.64907464 86.73351875 106.96521101 90.28860829 111.3515625 93.8203125 C113.97275119 95.97757399 116.49154281 98.21311 119 100.5 C122.39598682 103.59555196 125.86171531 106.55151207 129.4375 109.4375 C145.03979317 122.07958633 145.03979317 122.07958633 147 126 C147.09583709 128.74606225 147.13011482 131.46666582 147.12025452 134.21292114 C147.12153615 135.50180341 147.12153615 135.50180341 147.12284368 136.8167237 C147.1244984 139.7126348 147.11897723 142.60848872 147.11352539 145.50439453 C147.11324349 147.57362873 147.11340131 149.64286303 147.1139679 151.71209717 C147.11425576 157.34403923 147.10836076 162.97596015 147.10139394 168.60789728 C147.09515862 174.48826142 147.09455646 180.36862599 147.09336853 186.24899292 C147.09025574 197.39079432 147.08204305 208.53258595 147.07201904 219.67438304 C147.06085628 232.35616991 147.05534704 245.03795723 147.05032361 257.71974778 C147.0398604 283.81317079 147.02206143 309.90658444 147 336 C135.45 336 123.9 336 112 336 C111.96132813 327.40324219 111.96132813 327.40324219 111.921875 318.6328125 C111.89668786 314.98693537 111.87034062 311.34113966 111.83984375 307.6953125 C111.79162113 301.91731532 111.74753433 296.13950678 111.72900391 290.36132812 C111.71378247 285.69915126 111.67924031 281.03747023 111.63169098 276.37551498 C111.61693354 274.60311078 111.60896224 272.83063576 111.60811615 271.05817032 C111.59484459 257.18784568 110.34129371 247.62781871 100.37109375 237.19921875 C91.93271277 229.37251613 83.26372035 227.40577483 71.984375 227.6875 C66.6469583 228.10612092 62.61987784 229.34461076 58 232 C57.29488281 232.40089844 56.58976563 232.80179688 55.86328125 233.21484375 C48.2645397 238.20830248 43.41286566 246.34763375 41 255 C40.79912646 257.73863825 40.68918916 260.3790661 40.68115234 263.11669922 C40.67110672 263.90761459 40.6610611 264.69852997 40.65071106 265.51341248 C40.61998295 268.11049721 40.60287298 270.70747933 40.5859375 273.3046875 C40.56721749 275.11216101 40.54764346 276.91962587 40.5272522 278.7270813 C40.47601297 283.47150557 40.43634337 288.21595816 40.39910889 292.96051025 C40.35196204 298.66002722 40.29039945 304.35940463 40.23126221 310.05880737 C40.14315004 318.70581499 40.07331408 327.35279722 40 336 C27.46 336 14.92 336 2 336 C1.5625 318.5625 1.5625 318.5625 1.43188477 313.05297852 C1.39377677 311.61994414 1.35530892 310.18691927 1.31640625 308.75390625 C1.29993042 308.00330933 1.28345459 307.2527124 1.26647949 306.47937012 C1.4816412 302.94307359 1.4816412 302.94307359 0 300 C-3.07382396 299.87461307 -6.12625009 299.81387139 -9.20141602 299.79467773 C-10.16716553 299.78477814 -11.13291504 299.77487854 -12.12792969 299.76467896 C-15.33656316 299.73296099 -18.54521148 299.708266 -21.75390625 299.68359375 C-23.97208553 299.6630331 -26.19026082 299.64203688 -28.40843201 299.62062073 C-34.25935641 299.56530818 -40.1103167 299.51593954 -45.96130371 299.46777344 C-52.97471817 299.40881521 -59.98806673 299.34253693 -67.0014267 299.27747345 C-77.66757771 299.17934848 -88.33377011 299.09057142 -99 299 C-99 282.17 -99 265.34 -99 248 C-67.32 248 -35.64 248 -3 248 C-2.67 233.81 -2.34 219.62 -2 205 C-34.01 205 -66.02 205 -99 205 C-99 190.15 -99 175.3 -99 160 C-66.66 160 -34.32 160 -1 160 C-1 145.48 -1 130.96 -1 116 C-43.57 115.67 -86.14 115.34 -130 115 C-127.94823351 106.79293402 -119.48681863 101.662785 -113.12109375 96.55078125 C-109.50278526 93.62357085 -106.00525058 90.5608546 -102.5 87.5 C-97.32110162 82.98477988 -92.08162378 78.56760621 -86.7421875 74.2421875 C-83.63000066 71.69746493 -80.56266751 69.10389461 -77.5 66.5 C-73.5760428 63.16383276 -69.62738576 59.86728876 -65.625 56.625 C-59.27478295 51.45279423 -53.1119144 46.07104849 -46.93945312 40.68945312 C-43.79843831 37.9533224 -40.64888922 35.22706 -37.5 32.5 C-36.24995701 31.41671627 -34.99995706 30.33338288 -33.75 29.25 C-22.5 19.5 -11.25 9.75 0 0 Z " fill="#FDF1DD" transform="translate(510,258)"/>
<path d="M0 0 C6.69461232 5.59713489 9.08191732 11.59367705 10.4609375 20.08984375 C10.51507813 20.82332031 10.56921875 21.55679688 10.625 22.3125 C9.07549732 23.86200268 7.52509406 23.52905193 5.37109375 23.62890625 C4.51708984 23.67080078 3.66308594 23.71269531 2.78320312 23.75585938 C1.43645508 23.81483398 1.43645508 23.81483398 0.0625 23.875 C-0.83919922 23.91818359 -1.74089844 23.96136719 -2.66992188 24.00585938 C-4.90478485 24.11228142 -7.13976308 24.21429988 -9.375 24.3125 C-9.60574219 23.76980469 -9.83648437 23.22710938 -10.07421875 22.66796875 C-12.11797239 18.18463566 -13.54181012 15.13883468 -18.375 13.3125 C-22.01180273 12.80152547 -22.01180273 12.80152547 -25.875 12.875 C-27.1640625 12.85566406 -28.453125 12.83632813 -29.78125 12.81640625 C-33.8743742 13.38143535 -35.48913211 14.42124803 -38.375 17.3125 C-39.94435594 20.45121188 -39.72701103 22.85105822 -39.375 26.3125 C-34.8635753 33.49736156 -25.20223939 34.361489 -17.5078125 36.2734375 C-6.64124159 38.98360473 2.06476798 41.79910887 8.625 51.3125 C12.82224319 58.54912619 13.76522965 65.89640917 12.046875 74.05859375 C9.15860427 83.52424464 3.17516512 88.60610311 -5.375 93.1875 C-16.78638979 98.39361792 -30.38598339 99.25201889 -42.375 95.3125 C-52.08141269 91.219921 -58.70519556 85.79763246 -62.8125 76 C-63.88156937 73.15063939 -64.375 71.38334096 -64.375 68.3125 C-57.73251464 66.39639845 -51.26440671 65.74882909 -44.375 65.3125 C-44.106875 65.91578125 -43.83875 66.5190625 -43.5625 67.140625 C-41.08994765 72.18333044 -38.97383366 75.54897031 -33.6796875 77.7265625 C-27.14891545 79.38692827 -20.23356128 79.0791813 -14.0390625 76.3515625 C-11.04191769 74.48010588 -9.78638806 72.50346432 -8.375 69.3125 C-8.375 65.39539936 -8.59042713 63.23909269 -11.14453125 60.22265625 C-13.46517495 58.23527487 -15.18722093 57.35449067 -18.0625 56.375 C-19.02542969 56.04371094 -19.98835938 55.71242188 -20.98046875 55.37109375 C-23.47785792 54.59227618 -25.96838909 53.85764196 -28.48828125 53.16015625 C-50.56858486 47.04050298 -50.56858486 47.04050298 -57.25390625 37.33984375 C-61.33645931 29.95710843 -61.14417079 22.51428962 -60.375 14.3125 C-58.02248155 6.46712451 -52.02559519 1.07506797 -45.15234375 -3.0078125 C-32.26867948 -8.84731801 -11.75700292 -7.94626164 0 0 Z " fill="#EE6A03" transform="translate(206.375,657.6875)"/>
<path d="M0 0 C21.12 0 42.24 0 64 0 C64 5.61 64 11.22 64 17 C49.81 17 35.62 17 21 17 C21 24.92 21 32.84 21 41 C40.305 41.495 40.305 41.495 60 42 C60 47.61 60 53.22 60 59 C46.8 59 33.6 59 20 59 C20.33 59.66 20.66 60.32 21 61 C21 68.26 21 75.52 21 83 C35.52 83 50.04 83 65 83 C65 88.61 65 94.22 65 100 C56.67270649 100.02255403 48.34543656 100.04091682 40.01812077 100.05181217 C36.15179882 100.05704026 32.28549879 100.06413654 28.41918945 100.07543945 C24.69096599 100.086271 20.96276366 100.0922774 17.23452568 100.09487724 C15.80910344 100.09673101 14.38368241 100.10035071 12.95826912 100.10573006 C10.96836592 100.11294393 8.97844166 100.11340808 6.98852539 100.11352539 C5.85379288 100.115746 4.71906036 100.11796661 3.54994202 100.12025452 C1 100 1 100 0 99 C-0.09532328 95.92545239 -0.1255138 92.87340842 -0.11352539 89.79858398 C-0.11367142 88.83283447 -0.11381744 87.86708496 -0.1139679 86.87207031 C-0.11326834 83.66338901 -0.10547397 80.45476497 -0.09765625 77.24609375 C-0.09579222 75.02791882 -0.09436825 72.80974348 -0.09336853 70.59156799 C-0.08954216 64.74059929 -0.07971086 58.88965523 -0.06866455 53.03869629 C-0.05665902 46.02532714 -0.05204876 39.01194978 -0.04621124 31.9985733 C-0.03649916 21.33236504 -0.01734343 10.6662109 0 0 Z " fill="#EF6C02" transform="translate(426,653)"/>
<path d="M0 0 C4.95643298 5.13718581 11 12.6024748 11 20 C0.605 21.98 0.605 21.98 -10 24 C-10.86625 22.5975 -11.7325 21.195 -12.625 19.75 C-16.03416485 14.62416349 -19.08529327 11.97156891 -25 10 C-31.85667664 9.25709187 -37.36648065 9.86562925 -43 14 C-49.60106212 19.73711943 -53.39944424 26.62254467 -54.22314453 35.36962891 C-54.92418867 47.15552151 -54.93119879 58.50553693 -47.75 68.4375 C-42.34670336 73.47239005 -37.94395969 75.24152918 -30.5 75.5 C-23.53775984 75.24273477 -18.9825757 73.94187778 -13.99609375 69.0234375 C-10.62087323 65.27542856 -10.62087323 65.27542856 -8 61 C-5.04093596 61.64262502 -2.08276484 62.2889461 0.875 62.9375 C1.71675781 63.11990234 2.55851563 63.30230469 3.42578125 63.49023438 C4.23144531 63.66748047 5.03710938 63.84472656 5.8671875 64.02734375 C6.98262939 64.27085571 6.98262939 64.27085571 8.12060547 64.51928711 C10 65 10 65 12 66 C10.70373035 74.37360393 5.70616472 81.22727449 -0.80859375 86.46875 C-12.79787868 94.84628956 -26.17338661 96.38057118 -40.4375 94.375 C-53.02239259 91.77184818 -62.60205407 84.69727119 -69.8125 74.1875 C-78.19541821 59.6841813 -79.29427326 41.00977473 -75.03125 25.0234375 C-70.73940599 12.44053119 -61.99235356 1.07666238 -50 -5 C-46.7126092 -6.26514737 -43.42943497 -7.20631384 -40 -8 C-39.05125 -8.226875 -38.1025 -8.45375 -37.125 -8.6875 C-23.74671098 -10.0253289 -10.82161884 -8.62728711 0 0 Z " fill="#EF6A02" transform="translate(656,660)"/>
<path d="M0 0 C5.19101 3.79987084 7.84494957 9.75096512 9.13671875 15.90234375 C9.24933105 17.7038364 9.31252379 19.50870898 9.34204102 21.31347656 C9.37195885 22.93470428 9.37195885 22.93470428 9.40248108 24.58868408 C9.41919357 25.74922302 9.43590607 26.90976196 9.453125 28.10546875 C9.4739061 29.29839539 9.49468719 30.49132202 9.51609802 31.72039795 C9.58148114 35.53098798 9.64042651 39.34164689 9.69921875 43.15234375 C9.74241464 45.73568421 9.78602927 48.3190177 9.83007812 50.90234375 C9.93715112 57.23560649 10.03845049 63.56893852 10.13671875 69.90234375 C4.19671875 69.90234375 -1.74328125 69.90234375 -7.86328125 69.90234375 C-8.52328125 67.59234375 -9.18328125 65.28234375 -9.86328125 62.90234375 C-10.32476563 63.30066406 -10.78625 63.69898438 -11.26171875 64.109375 C-17.47417622 69.155462 -23.39517153 71.33367524 -31.30078125 72.33984375 C-37.31322603 71.60147334 -43.32920358 70.31072312 -47.83203125 66.03125 C-49.35763224 64.05320362 -50.64434872 62.08058058 -51.86328125 59.90234375 C-52.31703125 59.11859375 -52.77078125 58.33484375 -53.23828125 57.52734375 C-54.83459985 50.82280561 -54.59950706 44.67879577 -51.1171875 38.6484375 C-46.28197545 31.91529174 -39.03526171 28.66440829 -31.078125 27.2109375 C-23.69558067 26.15139755 -16.32443691 25.57950528 -8.86328125 25.90234375 C-9.17337009 24.29770926 -9.48644412 22.69365144 -9.80078125 21.08984375 C-9.97480469 20.19652344 -10.14882813 19.30320312 -10.328125 18.3828125 C-10.84069278 15.78837204 -10.84069278 15.78837204 -11.86328125 12.90234375 C-17.25177454 10.70295874 -21.1949287 10.62239317 -26.86328125 11.90234375 C-30.45802599 14.16859587 -32.10113288 16.11610603 -33.86328125 19.90234375 C-36.50952409 19.7621257 -39.15512703 19.61544599 -41.80078125 19.46484375 C-42.55552734 19.42552734 -43.31027344 19.38621094 -44.08789062 19.34570312 C-49.75 19.015625 -49.75 19.015625 -50.86328125 17.90234375 C-50.48918865 10.54518936 -48.52109021 6.62497732 -43.30078125 1.27734375 C-31.01835515 -8.14019884 -12.95879723 -7.63400843 0 0 Z " fill="#EE6A03" transform="translate(867.86328125,683.09765625)"/>
<path d="M0 0 C4.84036101 4.03531136 7.21240729 9.23236147 8.5 15.3125 C8.6126123 17.11399265 8.67580504 18.91886523 8.70532227 20.72363281 C8.7352401 22.34486053 8.7352401 22.34486053 8.76576233 23.99884033 C8.78247482 25.15937927 8.79918732 26.31991821 8.81640625 27.515625 C8.83718735 28.70855164 8.85796844 29.90147827 8.87937927 31.1305542 C8.94476239 34.94114423 9.00370776 38.75180314 9.0625 42.5625 C9.10569589 45.14584046 9.14931052 47.72917395 9.19335938 50.3125 C9.30043237 56.64576274 9.40173174 62.97909477 9.5 69.3125 C3.89 69.3125 -1.72 69.3125 -7.5 69.3125 C-8.49 67.0025 -9.48 64.6925 -10.5 62.3125 C-11.345625 63.075625 -12.19125 63.83875 -13.0625 64.625 C-19.27838311 69.80001589 -26.40459677 71.66263395 -34.38671875 71.52734375 C-40.84467032 70.87080524 -46.0361823 67.9792185 -50.5 63.3125 C-54.30774564 57.34072501 -55.60677764 51.31456262 -54.5 44.3125 C-52.73903211 38.65365937 -49.62487297 34.39405077 -44.5 31.3125 C-33.41176659 25.62978038 -21.75392525 24.95674088 -9.5 25.3125 C-9.92466497 23.53854492 -10.3652409 21.76839369 -10.8125 20 C-11.05613281 19.01386719 -11.29976563 18.02773438 -11.55078125 17.01171875 C-12.51713297 14.26378033 -13.21167543 13.05840689 -15.5 11.3125 C-19.96186512 9.82521163 -23.80077062 9.60119468 -28.1875 11.4375 C-30.72687122 13.24240867 -30.72687122 13.24240867 -32.12890625 16.4375 C-32.91136719 17.38625 -33.69382812 18.335 -34.5 19.3125 C-37.58571711 19.6037223 -39.75465061 19.58970239 -42.75 19.1875 C-43.49507813 19.11273437 -44.24015625 19.03796875 -45.0078125 18.9609375 C-46.84163705 18.77285293 -48.67145233 18.546384 -50.5 18.3125 C-50.72361839 11.40197028 -50.1822643 7.60739702 -45.5 2.3125 C-33.62207969 -8.25604327 -13.12349648 -8.95227362 0 0 Z " fill="#EE6902" transform="translate(331.5,683.6875)"/>
<path d="M0 0 C5.8517767 4.78867257 8.99866164 9.55617969 9.79170227 17.18022156 C9.93365432 20.56654503 9.9856093 23.94278404 10.00390625 27.33203125 C10.02185745 28.56369019 10.03980865 29.79534912 10.05830383 31.06433105 C10.11224211 34.97644689 10.14625076 38.88844183 10.1796875 42.80078125 C10.21125643 45.46228518 10.24736581 48.12370355 10.28320312 50.78515625 C10.36795937 57.29025616 10.43637895 63.79537203 10.4921875 70.30078125 C7.67962469 70.32762437 4.86731509 70.34754313 2.0546875 70.36328125 C0.85102539 70.37584961 0.85102539 70.37584961 -0.37695312 70.38867188 C-2.42076471 70.39729555 -4.46465152 70.35306275 -6.5078125 70.30078125 C-7.5078125 69.30078125 -7.5078125 69.30078125 -7.5703125 65.73828125 C-7.5496875 64.60390625 -7.5290625 63.46953125 -7.5078125 62.30078125 C-8.00410156 62.69910156 -8.50039063 63.09742188 -9.01171875 63.5078125 C-16.91398335 69.6706792 -24.27662746 72.98286025 -34.5078125 72.30078125 C-40.55272062 70.96098486 -45.20999254 68.89844911 -49.5078125 64.30078125 C-53.26559508 58.38900492 -54.78568663 52.23941358 -53.5078125 45.30078125 C-51.1777132 39.49615334 -46.88345542 34.48459788 -41.5078125 31.30078125 C-32.82905413 27.90945619 -24.44365121 26.15044315 -15.1328125 26.23828125 C-13.26496094 26.25181641 -13.26496094 26.25181641 -11.359375 26.265625 C-9.94785156 26.28302734 -9.94785156 26.28302734 -8.5078125 26.30078125 C-9.36873023 19.57479304 -9.36873023 19.57479304 -12.5078125 13.73828125 C-16.28981925 11.0199639 -18.84559297 10.98996661 -23.5078125 11.30078125 C-27.59033735 12.74167237 -29.11455205 13.56052629 -31.16796875 17.42578125 C-32.32619141 18.84890625 -32.32619141 18.84890625 -33.5078125 20.30078125 C-36.59352961 20.59200355 -38.76246311 20.57798364 -41.7578125 20.17578125 C-42.50289062 20.10101562 -43.24796875 20.02625 -44.015625 19.94921875 C-45.84944955 19.76113418 -47.67926483 19.53466525 -49.5078125 19.30078125 C-51.01389149 14.78254429 -49.3675739 11.55270634 -47.5078125 7.30078125 C-43.80902956 1.47239602 -38.92391934 -1.27750023 -32.5078125 -3.69921875 C-21.81965616 -5.99262881 -9.32715554 -6.31980165 0 0 Z " fill="#EE6902" transform="translate(728.5078125,682.69921875)"/>
<path d="M0 0 C1.17175781 -0.05607422 1.17175781 -0.05607422 2.3671875 -0.11328125 C3.12 -0.12488281 3.8728125 -0.13648438 4.6484375 -0.1484375 C5.68363525 -0.1781665 5.68363525 -0.1781665 6.73974609 -0.20849609 C8.625 0.375 8.625 0.375 10.12280273 2.23461914 C12.2873906 6.75974407 13.95723027 11.42111377 15.63671875 16.14453125 C16.19635063 17.69874031 16.19635063 17.69874031 16.76728821 19.28434753 C17.95399632 22.58363777 19.13333681 25.88550665 20.3125 29.1875 C21.11735358 31.42921063 21.92268664 33.67074918 22.72851562 35.91210938 C24.69957192 41.39775724 26.66459091 46.88553875 28.625 52.375 C29.22187622 50.65168457 29.22187622 50.65168457 29.83081055 48.89355469 C31.32738166 44.57583903 32.82888775 40.25985252 34.33178711 35.94433594 C34.97796289 34.08672132 35.62285153 32.22865839 36.26635742 30.37011719 C39.77633928 20.23562412 43.34997711 10.2165441 47.625 0.375 C53.565 0.375 59.505 0.375 65.625 0.375 C64.49962001 8.2526599 64.49962001 8.2526599 62.97265625 12.3125 C62.61719727 13.26697021 62.26173828 14.22144043 61.89550781 15.20483398 C61.49686523 16.25098877 61.09822266 17.29714355 60.6875 18.375 C60.26436523 19.49914307 59.84123047 20.62328613 59.40527344 21.78149414 C58.41409162 24.41112934 57.41689516 27.03840585 56.41650391 29.66455078 C55.10004593 33.12152553 53.79123091 36.58131155 52.48583984 40.04248047 C50.52173284 45.24956985 48.54989773 50.45367912 46.57321167 55.65600586 C45.78078506 57.74352513 44.99016621 59.83173162 44.20144653 61.9206543 C31.30110469 96.05054217 31.30110469 96.05054217 20 101.25 C13.75040855 103.33728987 5.85548865 103.45182955 -0.375 101.375 C-0.375 96.425 -0.375 91.475 -0.375 86.375 C1.171875 86.41625 2.71875 86.4575 4.3125 86.5 C9.24619151 86.48606302 12.7013229 86.22997434 16.375 82.6875 C18.52824962 78.70398821 19.14877147 75.3292118 17.98120117 70.97296143 C16.93261045 68.13246596 15.78569864 65.35372317 14.59375 62.5703125 C14.16501587 61.53292938 13.73628174 60.49554626 13.29455566 59.42672729 C11.92013729 56.11114347 10.52310183 52.80565691 9.125 49.5 C8.21462126 47.31573897 7.30575205 45.13084813 6.3984375 42.9453125 C3.10564779 35.0276554 -0.2104568 27.119998 -3.55859375 19.22558594 C-4.19548692 17.71035976 -4.83221828 16.19506555 -5.46875 14.6796875 C-5.75383423 14.01574982 -6.03891846 13.35181213 -6.3326416 12.66775513 C-7.89792157 8.92479254 -8.97768171 5.42173232 -9.375 1.375 C-7.25639109 -0.74360891 -2.90950493 0.05229502 0 0 Z " fill="#EE6903" transform="translate(352.375,678.625)"/>
<path d="M0 0 C5.01045589 4.040051 7.79541775 9.69743938 8.68423462 16.03253174 C8.82531023 19.49367709 8.81305758 22.91963968 8.73828125 26.3828125 C8.73120651 27.63383759 8.72413177 28.88486267 8.71684265 30.17379761 C8.69375086 33.4654906 8.64900499 36.75590878 8.59332275 40.04718018 C8.54174853 43.41931735 8.51924815 46.7916428 8.49414062 50.1640625 C8.43925639 56.75569802 8.35576806 63.34649499 8.25 69.9375 C5.27077407 69.96433987 2.29178705 69.98426037 -0.6875 70 C-1.96270508 70.01256836 -1.96270508 70.01256836 -3.26367188 70.02539062 C-4.07255859 70.02861328 -4.88144531 70.03183594 -5.71484375 70.03515625 C-6.4637085 70.04039307 -7.21257324 70.04562988 -7.98413086 70.05102539 C-9.75 69.9375 -9.75 69.9375 -10.75 68.9375 C-10.84658551 67.39861498 -10.87515642 65.8553894 -10.87597656 64.31347656 C-10.87978333 63.32865295 -10.88359009 62.34382935 -10.88751221 61.3291626 C-10.88853943 60.25632019 -10.88956665 59.18347778 -10.890625 58.078125 C-10.90895508 55.82551074 -10.92852558 53.57290629 -10.94921875 51.3203125 C-10.97819268 47.75406419 -10.99999987 44.18844396 -11.00048828 40.62207031 C-11.00382021 37.1901826 -11.03836325 33.75975897 -11.078125 30.328125 C-11.0710553 29.26337952 -11.0639856 28.19863403 -11.05670166 27.10162354 C-11.14527745 21.005016 -11.14527745 21.005016 -14.08105469 15.76489258 C-17.49763937 13.42560093 -19.63389783 13.29959727 -23.75 13.375 C-24.94625 13.37371094 -26.1425 13.37242187 -27.375 13.37109375 C-31.2805594 14.02654064 -32.95411036 15.18786589 -35.75 17.9375 C-36.95935522 20.35621043 -36.90021765 21.94391193 -36.93945312 24.64672852 C-36.95617065 25.62436661 -36.97288818 26.6020047 -36.9901123 27.60926819 C-37.00368774 28.66762375 -37.01726318 29.72597931 -37.03125 30.81640625 C-37.04965942 31.89881088 -37.06806885 32.98121552 -37.08703613 34.09642029 C-37.16593841 38.74313199 -37.23360312 43.38999245 -37.30224609 48.03686523 C-37.35383038 51.42178848 -37.41113032 54.80658126 -37.46875 58.19140625 C-37.48232544 59.25178604 -37.49590088 60.31216583 -37.5098877 61.40467834 C-37.52660522 62.37916428 -37.54332275 63.35365021 -37.56054688 64.35766602 C-37.57933899 65.65100609 -37.57933899 65.65100609 -37.59851074 66.97047424 C-37.75 68.9375 -37.75 68.9375 -38.75 69.9375 C-44.69 69.9375 -50.63 69.9375 -56.75 69.9375 C-56.75 45.5175 -56.75 21.0975 -56.75 -4.0625 C-51.14 -4.0625 -45.53 -4.0625 -39.75 -4.0625 C-39.09 -1.0925 -38.43 1.8775 -37.75 4.9375 C-37.28851562 4.46699219 -36.82703125 3.99648438 -36.3515625 3.51171875 C-25.77905807 -6.5802173 -12.45681897 -7.63657163 0 0 Z " fill="#EE6903" transform="translate(559.75,683.0625)"/>
<path d="M0 0 C4.74042549 3.93257162 7.77819304 7.32377755 9.4921875 13.265625 C9.4921875 14.585625 9.4921875 15.905625 9.4921875 17.265625 C6.57528489 17.59572715 3.66545043 17.88058014 0.7421875 18.140625 C-0.0828125 18.23859375 -0.9078125 18.3365625 -1.7578125 18.4375 C-4.14271243 18.62983064 -6.15791558 18.72847051 -8.5078125 18.265625 C-10.97265625 15.359375 -10.97265625 15.359375 -12.5078125 12.265625 C-15.9172168 9.67918036 -19.3464574 9.90059385 -23.5078125 10.265625 C-26.83161984 11.63850195 -28.12713674 12.39231002 -29.5703125 15.703125 C-29.73959705 18.30595809 -29.73959705 18.30595809 -28.17578125 20.2109375 C-24.13720887 23.3211704 -19.61760028 24.32511939 -14.7578125 25.703125 C-5.643018 28.29255526 3.08157648 30.94160805 8.4921875 39.265625 C10.75002589 43.44262601 11.26982355 47.60790907 10.4921875 52.265625 C8.16297197 58.9933145 4.76687806 64.68647887 -1.5078125 68.265625 C-12.12703252 72.92701102 -23.47461289 74.26880124 -34.5703125 70.515625 C-42.4765409 67.1635691 -47.11534087 62.22390431 -50.5078125 54.265625 C-50.296875 52.015625 -50.296875 52.015625 -49.5078125 50.265625 C-46.5462429 48.7848402 -43.67274955 48.91248463 -40.3828125 48.703125 C-39.10148438 48.61933594 -37.82015625 48.53554688 -36.5 48.44921875 C-35.51257813 48.38863281 -34.52515625 48.32804688 -33.5078125 48.265625 C-32.59635417 50.0234375 -31.68489583 51.78125 -30.7734375 53.5390625 C-29.20168981 55.68323681 -27.99758271 56.35495229 -25.5078125 57.265625 C-20.82256084 57.85223374 -16.74605387 57.84684034 -12.4453125 55.828125 C-10.61767478 54.41099832 -10.61767478 54.41099832 -9.5078125 53.265625 C-9.19736637 49.83946427 -9.19736637 49.83946427 -10.5078125 46.265625 C-16.03994888 41.93491217 -24.24709376 40.95139966 -30.95703125 39.390625 C-36.20730061 37.72717332 -40.21814724 35.03877077 -43.7578125 30.828125 C-44.23734375 30.27253906 -44.716875 29.71695313 -45.2109375 29.14453125 C-49.03340057 23.60656518 -49.40365482 17.79247618 -48.5078125 11.265625 C-45.84764567 4.64818521 -41.36775067 0.64452376 -35.0078125 -2.421875 C-24.11976155 -6.50489411 -9.82845295 -6.79724783 0 0 Z " fill="#EE6903" transform="translate(797.5078125,682.734375)"/>
<path d="M0 0 C0 6.27 0 12.54 0 19 C5.94 19 11.88 19 18 19 C18 23.95 18 28.9 18 34 C12.06 34 6.12 34 0 34 C0.33 34.66 0.66 35.32 1 36 C1.12040858 38.56567206 1.18559639 41.10890146 1.2109375 43.67578125 C1.23901231 45.2415468 1.26767682 46.80730187 1.296875 48.37304688 C1.33808892 50.84171181 1.37497522 53.31018236 1.40136719 55.77905273 C1.4290475 58.16170729 1.47492358 60.54347181 1.5234375 62.92578125 C1.52669037 63.65928299 1.52994324 64.39278473 1.53329468 65.14851379 C1.63917833 69.58349402 2.2641322 72.47067191 5 76 C7.70183055 77.35091528 10.11808206 77.33858058 13.125 77.5625 C15.06375 77.706875 17.0025 77.85125 19 78 C19 82.62 19 87.24 19 92 C14.63041839 93.4565272 10.3908797 93.26542961 5.8125 93.3125 C4.89146484 93.34150391 3.97042969 93.37050781 3.02148438 93.40039062 C-3.15848437 93.4574095 -7.87649754 92.60308495 -13 89 C-19.08802063 82.11092402 -19.30481147 73.15958773 -19.1953125 64.37109375 C-19.1924826 63.49598648 -19.18965271 62.62087921 -19.18673706 61.71925354 C-19.17565394 58.95852245 -19.15057257 56.19813095 -19.125 53.4375 C-19.11495482 51.55143702 -19.10583168 49.66536889 -19.09765625 47.77929688 C-19.07575368 43.18606957 -19.04130764 38.59309211 -19 34 C-19.71027344 34.01160156 -20.42054688 34.02320313 -21.15234375 34.03515625 C-22.07144531 34.04417969 -22.99054688 34.05320312 -23.9375 34.0625 C-24.85402344 34.07410156 -25.77054688 34.08570313 -26.71484375 34.09765625 C-29 34 -29 34 -30 33 C-30.07271741 30.64686445 -30.08370868 28.29166332 -30.0625 25.9375 C-30.05347656 24.64714844 -30.04445312 23.35679687 -30.03515625 22.02734375 C-30.02355469 21.02832031 -30.01195312 20.02929688 -30 19 C-26.37 19 -22.74 19 -19 19 C-19.05800781 18.16855469 -19.11601562 17.33710937 -19.17578125 16.48046875 C-19.22089844 15.39378906 -19.26601562 14.30710937 -19.3125 13.1875 C-19.37050781 12.10855469 -19.42851562 11.02960937 -19.48828125 9.91796875 C-19 7 -19 7 -16.796875 5.25 C-15.87390625 4.8375 -14.9509375 4.425 -14 4 C-13.16339844 3.61457031 -12.32679688 3.22914063 -11.46484375 2.83203125 C-10.21380859 2.32736328 -10.21380859 2.32736328 -8.9375 1.8125 C-8.10089844 1.46832031 -7.26429688 1.12414062 -6.40234375 0.76953125 C-4 0 -4 0 0 0 Z " fill="#EE6903" transform="translate(251,661)"/>
<path d="M0 0 C0.92683594 -0.00257813 1.85367187 -0.00515625 2.80859375 -0.0078125 C5.49115981 0.12155948 7.94818718 0.52717166 10.5625 1.125 C9.5625 4.125 9.5625 4.125 7.5625 7.125 C6.5725 7.125 5.5825 7.125 4.5625 7.125 C5.8825 8.115 7.2025 9.105 8.5625 10.125 C6.5825 10.125 4.6025 10.125 2.5625 10.125 C2.5625 10.785 2.5625 11.445 2.5625 12.125 C1.304375 12.393125 0.04625 12.66125 -1.25 12.9375 C-5.54155911 13.97497629 -5.54155911 13.97497629 -8.4375 17.125 C-9.55028259 20.78128566 -9.75698363 22.44039221 -8.125 25.9375 C-6.62171412 28.21415626 -6.62171412 28.21415626 -4.4375 29.125 C-1.88592345 29.1966735 0.63722971 29.21808442 3.1875 29.1875 C3.89390625 29.18298828 4.6003125 29.17847656 5.328125 29.17382812 C7.07295275 29.16203875 8.817737 29.14410324 10.5625 29.125 C11.5625 31.125 11.5625 31.125 10.625 34.25 C10.274375 35.19875 9.92375 36.1475 9.5625 37.125 C10.5525 37.455 11.5425 37.785 12.5625 38.125 C5.10318251 43.32271591 -2.2163138 46.27316326 -11.4375 45.125 C-17.7169929 43.60844322 -23.128942 40.74556456 -26.6953125 35.15234375 C-29.8402848 28.91738118 -30.84339632 22.64282413 -28.7421875 15.890625 C-25.68226631 9.05080116 -21.07795233 5.66077449 -14.3125 2.875 C-9.38849457 1.00357114 -5.28981821 -0.01467356 0 0 Z " fill="#EE6903" transform="translate(306.4375,709.875)"/>
<path d="M0 0 C8.91 0 17.82 0 27 0 C27 10.23 27 20.46 27 31 C18.09 31 9.18 31 0 31 C0 20.77 0 10.54 0 0 Z " fill="#EF6A01" transform="translate(558,412)"/>
<path d="M0 0 C8.91 0 17.82 0 27 0 C27.0229132 4.25421714 27.04283889 8.50822157 27.05493164 12.76245117 C27.05997101 14.21070073 27.06680253 15.65894517 27.07543945 17.10717773 C27.08752247 19.18474588 27.09323211 21.26224697 27.09765625 23.33984375 C27.10551147 25.21724243 27.10551147 25.21724243 27.11352539 27.13256836 C27 30 27 30 26 31 C24.07332493 31.08748207 22.14348139 31.10697334 20.21484375 31.09765625 C19.16159912 31.09515869 18.10835449 31.09266113 17.02319336 31.09008789 C15.67491455 31.08098389 14.32663574 31.07187988 12.9375 31.0625 C8.668125 31.041875 4.39875 31.02125 0 31 C0 20.77 0 10.54 0 0 Z " fill="#EF6D01" transform="translate(593,412)"/>
<path d="M0 0 C0.81404297 0.00386719 1.62808594 0.00773437 2.46679688 0.01171875 C3.25376953 0.00785156 4.04074219 0.00398438 4.8515625 0 C6.02428711 0.00193359 6.02428711 0.00193359 7.22070312 0.00390625 C7.92654541 0.00503418 8.6323877 0.00616211 9.35961914 0.00732422 C12.89005373 0.18684358 16.39659871 0.69825648 19.90429688 1.13671875 C19.90429688 11.03671875 19.90429688 20.93671875 19.90429688 31.13671875 C10.99429688 31.13671875 2.08429687 31.13671875 -7.09570312 31.13671875 C-7.11861632 26.88250161 -7.13854202 22.62849718 -7.15063477 18.37426758 C-7.15567413 16.92601802 -7.16250566 15.47777358 -7.17114258 14.02954102 C-7.1832256 11.95197287 -7.18893524 9.87447178 -7.19335938 7.796875 C-7.19859619 6.54527588 -7.20383301 5.29367676 -7.20922852 4.00415039 C-7.00462271 -1.16379612 -4.58230314 0.00764354 0 0 Z " fill="#EF6903" transform="translate(565.095703125,373.86328125)"/>
<path d="M0 0 C8.91 0 17.82 0 27 0 C27.02291394 4.11177927 27.04283951 8.22339658 27.05493164 12.33520508 C27.0599708 13.73495228 27.06680216 15.1346942 27.07543945 16.53442383 C27.0875232 18.54245777 27.09269807 20.55052957 27.09765625 22.55859375 C27.10551147 24.37315063 27.10551147 24.37315063 27.11352539 26.22436523 C27 29 27 29 26 30 C24.07332493 30.08748207 22.14348139 30.10697334 20.21484375 30.09765625 C19.16159912 30.09515869 18.10835449 30.09266113 17.02319336 30.09008789 C15.67491455 30.08098389 14.32663574 30.07187988 12.9375 30.0625 C8.668125 30.041875 4.39875 30.02125 0 30 C0 20.1 0 10.2 0 0 Z " fill="#EF6A04" transform="translate(593,375)"/>
<path d="M0 0 C2.3500413 1.79024373 3.8535224 3.2920101 4.90625 6.07421875 C4.9475 6.63109375 4.98875 7.18796875 5.03125 7.76171875 C4.45375 7.10171875 3.87625 6.44171875 3.28125 5.76171875 C1.03471023 3.31880952 1.03471023 3.31880952 -2.96875 3.76171875 C-3.154375 4.96828125 -3.154375 4.96828125 -3.34375 6.19921875 C-3.55 7.04484375 -3.75625 7.89046875 -3.96875 8.76171875 C-4.62875 9.09171875 -5.28875 9.42171875 -5.96875 9.76171875 C-6.46375 6.79171875 -6.46375 6.79171875 -6.96875 3.76171875 C-7.401875 4.23609375 -7.835 4.71046875 -8.28125 5.19921875 C-9.96875 6.76171875 -9.96875 6.76171875 -12.96875 7.76171875 C-13.29875 8.75171875 -13.62875 9.74171875 -13.96875 10.76171875 C-14.95875 10.43171875 -15.94875 10.10171875 -16.96875 9.76171875 C-22.8422784 10.26943053 -27.81474449 11.3480879 -31.96875 15.76171875 C-32.66423785 17.0802478 -33.33618604 18.41187244 -33.96875 19.76171875 C-36.61499284 19.6215007 -39.26059578 19.47482099 -41.90625 19.32421875 C-42.66099609 19.28490234 -43.41574219 19.24558594 -44.19335938 19.20507812 C-49.85546875 18.875 -49.85546875 18.875 -50.96875 17.76171875 C-50.5946574 10.40456436 -48.62655896 6.48435232 -43.40625 1.13671875 C-31.24942384 -8.18452017 -12.72902033 -8.00614969 0 0 Z " fill="#EE6A03" transform="translate(867.96875,683.23828125)"/>
<path d="M0 0 C-0.99 0.495 -0.99 0.495 -2 1 C-2.37756808 2.32148827 -2.7018576 3.65835921 -3 5 C-3.556875 6.11375 -3.556875 6.11375 -4.125 7.25 C-5.38668368 11.21529157 -4.79137284 13.91124035 -4 18 C-3.34 18.99 -2.68 19.98 -2 21 C-0.8125 23.5625 -0.8125 23.5625 0 26 C-0.33 26.66 -0.66 27.32 -1 28 C0.32 28.33 1.64 28.66 3 29 C3 29.99 3 30.98 3 32 C2.34 32 1.68 32 1 32 C0.67 32.99 0.34 33.98 0 35 C-0.66 34.67 -1.32 34.34 -2 34 C-2.268125 35.134375 -2.53625 36.26875 -2.8125 37.4375 C-3.204375 38.613125 -3.59625 39.78875 -4 41 C-7.3398434 42.11328113 -7.77466105 42.02707951 -10.8125 40.625 C-16.60560387 37.5788107 -19.96743424 32.09769728 -22 26 C-22.7423294 19.14866475 -22.08249755 13.66241147 -18 8 C-13.01414093 3.01414093 -7.2704508 -0.66095007 0 0 Z " fill="#EE6902" transform="translate(836,712)"/>
<path d="M0 0 C2 3 2 3 3 6 C3.66 6 4.32 6 5 6 C5.33 6.66 5.66 7.32 6 8 C6.33 6.35 6.66 4.7 7 3 C7.33 3 7.66 3 8 3 C8 9.27 8 15.54 8 22 C8.33 22 8.66 22 9 22 C9 25.3 9 28.6 9 32 C41.67 32 74.34 32 108 32 C108 32.33 108 32.66 108 33 C106.71626999 33.00586624 105.43253998 33.01173248 104.10990906 33.01777649 C92.02876376 33.07491876 79.94779995 33.14763566 67.86683941 33.23571491 C61.65546139 33.28049686 55.44415017 33.3197357 49.23266602 33.34643555 C43.2414322 33.37239045 37.25045433 33.41273728 31.25937843 33.46318626 C28.97040801 33.47990796 26.68139326 33.49138908 24.39237022 33.49761391 C21.1931901 33.50719735 17.99467267 33.53518768 14.7956543 33.56762695 C13.36714394 33.56547432 13.36714394 33.56547432 11.90977478 33.5632782 C10.60360199 33.58208542 10.60360199 33.58208542 9.27104187 33.60127258 C8.51424983 33.60588155 7.75745779 33.61049051 6.97773266 33.61523914 C4.49837386 34.09758958 3.59373543 35.09345309 2 37 C1.67 35.02 1.34 33.04 1 31 C0.34 31 -0.32 31 -1 31 C-0.45276317 27.62537285 0.0549 25.91765 2 23 C1.01 23.33 0.02 23.66 -1 24 C-1.33 23.34 -1.66 22.68 -2 22 C-4.91227269 25.28804981 -6.49701212 27.59885603 -7 32 C-7.66 31.67 -8.32 31.34 -9 31 C-9 30.01 -9 29.02 -9 28 C-9.680625 27.360625 -10.36125 26.72125 -11.0625 26.0625 C-11.701875 25.381875 -12.34125 24.70125 -13 24 C-12.75 21.75 -12.75 21.75 -12 20 C-11.34 20 -10.68 20 -10 20 C-10.99 18.02 -11.98 16.04 -13 14 C-12.01 13.1028125 -12.01 13.1028125 -11 12.1875 C-8.6626154 10.12498166 -8.6626154 10.12498166 -9 7 C-6.82109238 4.24769564 -4.00656072 2.74064042 -1 1 C-0.67 0.67 -0.34 0.34 0 0 Z " fill="#F07710" transform="translate(402,525)"/>
<path d="M0 0 C1.86785156 0.01353516 1.86785156 0.01353516 3.7734375 0.02734375 C5.18496094 0.04474609 5.18496094 0.04474609 6.625 0.0625 C6.625 0.3925 6.625 0.7225 6.625 1.0625 C5.84125 1.145 5.0575 1.2275 4.25 1.3125 C1.47750896 1.79056339 1.47750896 1.79056339 0.3125 4.125 C0.085625 4.764375 -0.14125 5.40375 -0.375 6.0625 C-0.705 5.4025 -1.035 4.7425 -1.375 4.0625 C-2.365 4.5575 -2.365 4.5575 -3.375 5.0625 C-3.045 6.3825 -2.715 7.7025 -2.375 9.0625 C-1.715 8.4025 -1.055 7.7425 -0.375 7.0625 C-0.375 10.0625 -0.375 10.0625 -1.375 13.0625 C-0.74851562 13.23265625 -0.12203125 13.4028125 0.5234375 13.578125 C1.34070313 13.82046875 2.15796875 14.0628125 3 14.3125 C4.21816406 14.66054688 4.21816406 14.66054688 5.4609375 15.015625 C8.08285454 16.2839892 8.61882318 17.38673308 9.625 20.0625 C8.614375 19.4025 7.60375 18.7425 6.5625 18.0625 C2.7689904 15.91335444 0.02002395 15.50313331 -4.375 16.0625 C-8.45752485 17.50339112 -9.98173955 18.32224504 -12.03515625 22.1875 C-13.19337891 23.610625 -13.19337891 23.610625 -14.375 25.0625 C-17.46071711 25.3537223 -19.62965061 25.33970239 -22.625 24.9375 C-23.37007812 24.86273437 -24.11515625 24.78796875 -24.8828125 24.7109375 C-26.71663705 24.52285293 -28.54645233 24.296384 -30.375 24.0625 C-31.88107899 19.54426304 -30.2347614 16.31442509 -28.375 12.0625 C-24.67621706 6.23411477 -19.79110684 3.48421852 -13.375 1.0625 C-8.88038884 0.06643022 -4.59474526 -0.04334665 0 0 Z " fill="#EE6802" transform="translate(709.375,677.9375)"/>
<path d="M0 0 C1.98 0 3.96 0 6 0 C4.68 0.33 3.36 0.66 2 1 C2 33.01 2 65.02 2 98 C22.46 98 42.92 98 64 98 C64 93.71 64 89.42 64 85 C49.48 85 34.96 85 20 85 C20 77.08 20 69.16 20 61 C20.33 61 20.66 61 21 61 C21 68.26 21 75.52 21 83 C35.52 83 50.04 83 65 83 C65 88.61 65 94.22 65 100 C56.67270649 100.02255403 48.34543656 100.04091682 40.01812077 100.05181217 C36.15179882 100.05704026 32.28549879 100.06413654 28.41918945 100.07543945 C24.69096599 100.086271 20.96276366 100.0922774 17.23452568 100.09487724 C15.80910344 100.09673101 14.38368241 100.10035071 12.95826912 100.10573006 C10.96836592 100.11294393 8.97844166 100.11340808 6.98852539 100.11352539 C5.85379288 100.115746 4.71906036 100.11796661 3.54994202 100.12025452 C1 100 1 100 0 99 C-0.09532328 95.92545239 -0.1255138 92.87340842 -0.11352539 89.79858398 C-0.11367142 88.83283447 -0.11381744 87.86708496 -0.1139679 86.87207031 C-0.11326834 83.66338901 -0.10547397 80.45476497 -0.09765625 77.24609375 C-0.09579222 75.02791882 -0.09436825 72.80974348 -0.09336853 70.59156799 C-0.08954216 64.74059929 -0.07971086 58.88965523 -0.06866455 53.03869629 C-0.05845299 47.07332696 -0.05387146 41.10795367 -0.04882812 35.14257812 C-0.03808869 23.42837456 -0.02101085 11.71418933 0 0 Z " fill="#EF6F19" transform="translate(426,653)"/>
<path d="M0 0 C1.25425781 0.00902344 2.50851562 0.01804687 3.80078125 0.02734375 C4.75339844 0.03894531 5.70601562 0.05054688 6.6875 0.0625 C6.41736927 6.14044143 5.71449406 10.23010713 1.6875 15.0625 C-2.32936017 18.59246803 -5.94212311 19.43476753 -11.30859375 19.3359375 C-14.65658653 18.87909638 -16.16253481 17.60336795 -18.3125 15.0625 C-19.22904656 11.64072616 -19.64085544 9.24457959 -18.6875 5.8125 C-13.96380358 -0.19947726 -7.03408055 -0.06573907 0 0 Z " fill="#FCF1DD" transform="translate(852.3125,720.9375)"/>
<path d="M0 0 C1.15242188 0.00902344 2.30484375 0.01804687 3.4921875 0.02734375 C4.36101562 0.03894531 5.22984375 0.05054688 6.125 0.0625 C5.85486927 6.14044143 5.15199406 10.23010713 1.125 15.0625 C-2.89186017 18.59246803 -6.50462311 19.43476753 -11.87109375 19.3359375 C-15.21908653 18.87909638 -16.72503481 17.60336795 -18.875 15.0625 C-20.01509771 11.14341414 -20.28388632 9.03091496 -18.6875 5.25 C-13.99139612 -0.41771158 -6.89466044 -0.07035368 0 0 Z " fill="#FDF1DD" transform="translate(315.875,720.9375)"/>
<path d="M0 0 C0.15560739 6.92862385 -0.8393421 10.56925986 -5.5 15.8125 C-9.377123 19.20498262 -12.82060336 19.3625045 -17.76953125 19.265625 C-20 19 -20 19 -23.0625 17.5625 C-25.53409046 14.29362229 -25.66503777 12.14330271 -25.4140625 8.12109375 C-25 6 -25 6 -23.4375 3.5625 C-16.17341563 -1.09396434 -8.3512794 -0.20849241 0 0 Z " fill="#FCF1DC" transform="translate(720,721)"/>
<path d="M0 0 C1.16097702 0.00015106 2.32195404 0.00030212 3.51811218 0.00045776 C4.77130753 0.01078033 6.02450287 0.02110291 7.31567383 0.03173828 C8.59879959 0.03456818 9.88192535 0.03739807 11.20393372 0.04031372 C14.6119671 0.04794281 18.01982949 0.06758491 21.42779541 0.08972168 C24.90667406 0.11019581 28.38558039 0.11931878 31.86450195 0.12939453 C38.68814691 0.15083163 45.51165017 0.18600779 52.33520508 0.22705078 C52.33520508 5.83705078 52.33520508 11.44705078 52.33520508 17.22705078 C38.14520508 17.22705078 23.95520508 17.22705078 9.33520508 17.22705078 C9.33520508 16.89705078 9.33520508 16.56705078 9.33520508 16.22705078 C10.49306519 16.19732178 10.49306519 16.19732178 11.67431641 16.16699219 C15.16579466 16.07183935 18.6566666 15.96212031 22.14770508 15.85205078 C23.36264648 15.82111328 24.57758789 15.79017578 25.8293457 15.75830078 C27.57441406 15.70029297 27.57441406 15.70029297 29.35473633 15.64111328 C30.42828369 15.60969238 31.50183105 15.57827148 32.60791016 15.54589844 C35.55128158 15.41112771 35.55128158 15.41112771 38.33520508 13.22705078 C39.05902975 11.16779939 39.05902975 11.16779939 39.33520508 9.22705078 C40.32520508 9.22705078 41.31520508 9.22705078 42.33520508 9.22705078 C42.47958008 8.62892578 42.62395508 8.03080078 42.77270508 7.41455078 C43.22244898 5.66554674 43.76412849 3.94028055 44.33520508 2.22705078 C26.84520508 2.22705078 9.35520508 2.22705078 -8.66479492 2.22705078 C-5.23791744 -0.0575342 -4.02539182 -0.01746374 0 0 Z " fill="#ED5D01" transform="translate(437.664794921875,652.77294921875)"/>
<path d="M0 0 C0.33 0 0.66 0 1 0 C1.06058594 1.13179688 1.12117187 2.26359375 1.18359375 3.4296875 C1.26799917 4.91147145 1.35264717 6.3932416 1.4375 7.875 C1.47681641 8.62136719 1.51613281 9.36773437 1.55664062 10.13671875 C1.71573624 14.19986864 1.71573624 14.19986864 3 18 C3.66 18 4.32 18 5 18 C5 20.97 5 23.94 5 27 C5.66 27 6.32 27 7 27 C7 18.42 7 9.84 7 1 C7.33 1 7.66 1 8 1 C8 10.24 8 19.48 8 29 C9.98 29 11.96 29 14 29 C13.67 30.32 13.34 31.64 13 33 C15.64 33 18.28 33 21 33 C21 33.33 21 33.66 21 34 C14.565 34.495 14.565 34.495 8 35 C8 45.23 8 55.46 8 66 C6.515 66.495 6.515 66.495 5 67 C5 56.44 5 45.88 5 35 C4.34 35 3.68 35 3 35 C3 38.3 3 41.6 3 45 C2.67 45 2.34 45 2 45 C1.96261719 44.31292969 1.92523437 43.62585938 1.88671875 42.91796875 C1.82097656 42.01691406 1.75523437 41.11585938 1.6875 40.1875 C1.62949219 39.29417969 1.57148437 38.40085937 1.51171875 37.48046875 C0.93686419 34.69396 0.1793144 33.75864246 -2 32 C-1.67 31.67 -1.34 31.34 -1 31 C-0.84111908 28.71011219 -0.74861927 26.41556559 -0.68359375 24.12109375 C-0.66281265 23.4344313 -0.64203156 22.74776886 -0.62062073 22.04029846 C-0.55505857 19.83947065 -0.49620985 17.63852025 -0.4375 15.4375 C-0.39432108 13.94855486 -0.350707 12.45962227 -0.30664062 10.97070312 C-0.1993707 7.31393447 -0.09812228 3.65702682 0 0 Z " fill="#FCEBCF" transform="translate(585,377)"/>
<path d="M0 0 C0.33 0 0.66 0 1 0 C1 9.24 1 18.48 1 28 C6.28 27.67 11.56 27.34 17 27 C16.67 26.34 16.34 25.68 16 25 C15.01 24.67 14.02 24.34 13 24 C13 21.36 13 18.72 13 16 C13.99 15.67 14.98 15.34 16 15 C16.33 16.32 16.66 17.64 17 19 C18.32 18.67 19.64 18.34 21 18 C21.33 16.02 21.66 14.04 22 12 C24.33174698 15.64335466 24.15704592 18.75976004 24 23 C24 23.66 24 24.32 24 25 C24.33 18.07 24.66 11.14 25 4 C25.33 4 25.66 4 26 4 C26 12.58 26 21.16 26 30 C17.42 30 8.84 30 0 30 C0 20.1 0 10.2 0 0 Z " fill="#EC5E00" transform="translate(593,413)"/>
<path d="M0 0 C0.33 0 0.66 0 1 0 C1.33 17.82 1.66 35.64 2 54 C-3.61 54 -9.22 54 -15 54 C-16 53 -16 53 -16.0625 49.9375 C-16.041875 48.968125 -16.02125 47.99875 -16 47 C-15.2575 46.9175 -14.515 46.835 -13.75 46.75 C-10.48778646 45.8603054 -9.19045122 44.51496251 -7 42 C-6.01 42.66 -5.02 43.32 -4 44 C-4 43.01 -4 42.02 -4 41 C-3.34 41 -2.68 41 -2 41 C-1.67 41.99 -1.34 42.98 -1 44 C-0.67 29.48 -0.34 14.96 0 0 Z " fill="#EF7410" transform="translate(339,699)"/>
<path d="M0 0 C0.99 0.33 1.98 0.66 3 1 C3.33 1.99 3.66 2.98 4 4 C5.98 3.01 7.96 2.02 10 1 C10.66 1.66 11.32 2.32 12 3 C14.79216791 3.24569272 17.49240605 3.37363138 20.2890625 3.4140625 C21.10748627 3.43342865 21.92591003 3.4527948 22.76913452 3.4727478 C25.38764976 3.53261082 28.00620881 3.57895532 30.625 3.625 C32.39845686 3.66317364 34.17189505 3.70222501 35.9453125 3.7421875 C40.29672375 3.83831771 44.64822179 3.92232351 49 4 C49 4.33 49 4.66 49 5 C37.78 5.33 26.56 5.66 15 6 C15 6.66 15 7.32 15 8 C14.505 8.474375 14.01 8.94875 13.5 9.4375 C11.65373409 10.99969942 11.65373409 10.99969942 12 14 C7.71 14 3.42 14 -1 14 C-1.33 12.68 -1.66 11.36 -2 10 C-0.68 9.67 0.64 9.34 2 9 C2 9.99 2 10.98 2 12 C2.66 12 3.32 12 4 12 C3.50243908 9.24358584 3.50243908 9.24358584 2 7 C0.375 4.5625 0.375 4.5625 -1 2 C-0.67 1.34 -0.34 0.68 0 0 Z " fill="#F17910" transform="translate(499,590)"/>
<path d="M0 0 C8.91 0 17.82 0 27 0 C27 9.9 27 19.8 27 30 C26.67 30 26.34 30 26 30 C25.505 16.14 25.505 16.14 25 2 C18.565 2.495 18.565 2.495 12 3 C11.67 4.98 11.34 6.96 11 9 C10.34 9 9.68 9 9 9 C8.34 10.32 7.68 11.64 7 13 C6.34 13 5.68 13 5 13 C5 11.68 5 10.36 5 9 C2.66924071 9.95865509 2.66924071 9.95865509 1 13 C0.67 8.71 0.34 4.42 0 0 Z " fill="#EF6D02" transform="translate(593,412)"/>
<path d="M0 0 C1.9375 1 1.9375 1 3 3 C3.52960415 6.58042244 3.65886567 9.75978228 1.9375 13 C-1.21863437 14.62897258 -3.52151049 14.48820905 -7 14 C-9.5 11.875 -9.5 11.875 -11 9 C-10.936318 5.81590023 -10.51040601 3.85067668 -8.875 1.125 C-5.87553214 -0.67468071 -3.40613332 -0.36494286 0 0 Z " fill="#FCF2DF" transform="translate(603,549)"/>
<path d="M0 0 C0.66 0.33 1.32 0.66 2 1 C1.175 1.969375 0.35 2.93875 -0.5 3.9375 C-3.10539608 6.47022001 -3.10539608 6.47022001 -3 8 C59.37 8.495 59.37 8.495 123 9 C123 9.33 123 9.66 123 10 C80.1 10 37.2 10 -7 10 C-6.01641451 6.06565804 -5.691807 5.32850017 -2.9375 2.75 C-2.38964844 2.22921875 -1.84179688 1.7084375 -1.27734375 1.171875 C-0.64505859 0.59179688 -0.64505859 0.59179688 0 0 Z " fill="#FDFDFD" transform="translate(387,363)"/>
<path d="M0 0 C0.66 0 1.32 0 2 0 C2.33 17.82 2.66 35.64 3 54 C-2.94 54 -8.88 54 -15 54 C-15 51.03 -15 48.06 -15 45 C-14.67 45 -14.34 45 -14 45 C-13.67 46.98 -13.34 48.96 -13 51 C-6.07 51.495 -6.07 51.495 1 52 C0.505 50.515 0.505 50.515 0 49 C-0.08722452 47.38904142 -0.11767272 45.77468984 -0.11352539 44.16137695 C-0.11344986 43.1805867 -0.11337433 42.19979645 -0.11329651 41.18928528 C-0.10813522 40.13295395 -0.10297394 39.07662262 -0.09765625 37.98828125 C-0.0962413 36.90491989 -0.09482635 35.82155853 -0.09336853 34.70536804 C-0.08776559 31.24105075 -0.07521258 27.7767978 -0.0625 24.3125 C-0.05748538 21.96549572 -0.05292241 19.61849044 -0.04882812 17.27148438 C-0.03779521 11.51430092 -0.0210542 5.75715506 0 0 Z " fill="#EE6810" transform="translate(875,699)"/>
<path d="M0 0 C8.58 0 17.16 0 26 0 C25.67 0.66 25.34 1.32 25 2 C24.01 2 23.02 2 22 2 C22.33 2.99 22.66 3.98 23 5 C24.32 5.66 25.64 6.32 27 7 C17.76 7 8.52 7 -1 7 C-1 6.67 -1 6.34 -1 6 C0.98 5.67 2.96 5.34 5 5 C5.33 3.68 5.66 2.36 6 1 C4.02 1 2.04 1 0 1 C0 0.67 0 0.34 0 0 Z " fill="#FCF6E9" transform="translate(593,405)"/>
<path d="M0 0 C2.79192205 -0.05380578 5.5828141 -0.09357669 8.375 -0.125 C9.1690625 -0.14175781 9.963125 -0.15851562 10.78125 -0.17578125 C12.85492015 -0.19335473 14.92883241 -0.10335168 17 0 C19 2 19 2 19 6 C15 6 15 6 12 5 C11.67 5 11.34 5 11 5 C10.34 5.66 9.68 6.32 9 7 C9 5.68 9 4.36 9 3 C8.71125 4.0725 8.4225 5.145 8.125 6.25 C7.27179891 9.09400364 6.4363497 11.43508983 5 14 C4.00407543 12.27373075 3.0097194 10.54651538 2.02734375 8.8125 C1.25675651 7.45298486 0.47490809 6.09984244 -0.3125 4.75 C-1 3 -1 3 0 0 Z " fill="#EF6F0D" transform="translate(344,679)"/>
<path d="M0 0 C1.80791016 0.00966797 1.80791016 0.00966797 3.65234375 0.01953125 C5.53373047 0.04466797 5.53373047 0.04466797 7.453125 0.0703125 C8.72285156 0.07933594 9.99257813 0.08835937 11.30078125 0.09765625 C14.43508593 0.12122245 17.56901041 0.15412418 20.703125 0.1953125 C20.703125 0.5253125 20.703125 0.8553125 20.703125 1.1953125 C17.073125 1.5253125 13.443125 1.8553125 9.703125 2.1953125 C9.703125 2.5253125 9.703125 2.8553125 9.703125 3.1953125 C3.433125 3.1953125 -2.836875 3.1953125 -9.296875 3.1953125 C-9.21308594 5.93714844 -9.12929688 8.67898438 -9.04296875 11.50390625 C-8.47386329 31.11396739 -8.00134883 50.6008464 -9.296875 70.1953125 C-9.626875 70.1953125 -9.956875 70.1953125 -10.296875 70.1953125 C-10.296875 47.7553125 -10.296875 25.3153125 -10.296875 2.1953125 C-6.17173291 0.13274146 -4.47887362 -0.04225352 0 0 Z " fill="#FCECD1" transform="translate(683.296875,399.8046875)"/>
<path d="M0 0 C8.25 0 16.5 0 25 0 C25 9.9 25 19.8 25 30 C22.339375 30.020625 19.67875 30.04125 16.9375 30.0625 C16.1137085 30.071604 15.28991699 30.08070801 14.44116211 30.09008789 C9.85201576 30.1071234 5.5261478 29.7633742 1 29 C1 28.67 1 28.34 1 28 C2.32064453 27.94392578 2.32064453 27.94392578 3.66796875 27.88671875 C4.82941406 27.82097656 5.99085938 27.75523437 7.1875 27.6875 C8.33605469 27.62949219 9.48460937 27.57148438 10.66796875 27.51171875 C14.14680104 26.97745494 16.14531638 26.0052674 19 24 C19.99 24.66 20.98 25.32 22 26 C23.71443219 24.28556781 23.23052967 21.99554759 23.31640625 19.65234375 C23.35451416 18.68031006 23.39262207 17.70827637 23.43188477 16.70678711 C23.49653931 14.84098999 23.49653931 14.84098999 23.5625 12.9375 C23.706875 8.998125 23.85125 5.05875 24 1 C16.08 1 8.16 1 0 1 C0 0.67 0 0.34 0 0 Z " fill="#EC5700" transform="translate(560,413)"/>
<path d="M0 0 C0.33 0.66 0.66 1.32 1 2 C13.87 2.495 13.87 2.495 27 3 C27 3.33 27 3.66 27 4 C18.75 4 10.5 4 2 4 C2 12.25 2 20.5 2 29 C1.67 29 1.34 29 1 29 C0.67 22.73 0.34 16.46 0 10 C-3.13349732 8.95550089 -3.98968256 9.06576355 -7 10 C-7.625 8.1875 -7.625 8.1875 -8 6 C-5.94509119 2.91763679 -3.95732331 0 0 0 Z " fill="#ED5900" transform="translate(444,708)"/>
<path d="M0 0 C0.33 0 0.66 0 1 0 C1.02505615 0.87213135 1.0501123 1.7442627 1.07592773 2.64282227 C1.17157363 5.90627763 1.27077356 9.16958608 1.37231445 12.43286133 C1.41538658 13.84004557 1.45707864 15.24727282 1.49731445 16.65454102 C1.5556957 18.68779408 1.61918685 20.72083617 1.68359375 22.75390625 C1.72025146 23.97408447 1.75690918 25.1942627 1.79467773 26.45141602 C2.00081086 30.01401411 2.44468315 33.47640588 3 37 C5.97 36.505 5.97 36.505 9 36 C9.33 37.98 9.66 39.96 10 42 C9.4225 41.773125 8.845 41.54625 8.25 41.3125 C5.91933711 40.75151586 5.91933711 40.75151586 3.875 42.25 C1.79780497 44.05435048 1.79780497 44.05435048 0 47 C0 31.49 0 15.98 0 0 Z " fill="#FDF8EF" transform="translate(738,697)"/>
<path d="M0 0 C8.91 0 17.82 0 27 0 C27 9.9 27 19.8 27 30 C26.67 30 26.34 30 26 30 C25.505 16.14 25.505 16.14 25 2 C17.08 2 9.16 2 1 2 C0.67 1.34 0.34 0.68 0 0 Z " fill="#F0781E" transform="translate(593,412)"/>
<path d="M0 0 C12.87 0 25.74 0 39 0 C39 0.33 39 0.66 39 1 C26.79 1 14.58 1 2 1 C2.33 2.98 2.66 4.96 3 7 C2.67949202 9.33512959 2.34403308 11.66822025 2 14 C1.91076974 17.66835508 1.94029227 21.33129167 2 25 C1.34 25 0.68 25 0 25 C0 16.75 0 8.5 0 0 Z " fill="#EB4E00" transform="translate(593,262)"/>
<path d="M0 0 C5.65159458 0.66489348 9.43463354 3.30418633 13.25 7.4375 C16.63418877 12.39291928 17.94645716 16.98009227 17 23 C15.89718758 25.8145691 14.54587074 28.40514554 13 31 C11.3584951 27.7169902 12.48111376 24.57454967 13 21 C13.33 21 13.66 21 14 21 C14.47397114 15.19385353 13.62812359 11.47394381 10 7 C6.84573792 4.56858965 3.6118417 2.66700386 0 1 C0 0.67 0 0.34 0 0 Z " fill="#EE5D0B" transform="translate(791,712)"/>
<path d="M0 0 C8.91 0 17.82 0 27 0 C27 0.33 27 0.66 27 1 C16.11 1.495 16.11 1.495 5 2 C5.66 2.66 6.32 3.32 7 4 C7 4.99 7 5.98 7 7 C6.01 7 5.02 7 4 7 C3.67 7.99 3.34 8.98 3 10 C2.34 10 1.68 10 1 10 C0.67 6.7 0.34 3.4 0 0 Z " fill="#F07209" transform="translate(558,412)"/>
<path d="M0 0 C0.33 0 0.66 0 1 0 C1 8.91 1 17.82 1 27 C-7 21 -7 21 -10 17 C-7.04590299 18.37154504 -4.55991624 19.98863724 -2 22 C-0.7970929 21.01987068 -0.7970929 21.01987068 -0.90234375 19.17407227 C-0.91394531 18.39604248 -0.92554688 17.6180127 -0.9375 16.81640625 C-0.94523438 15.97142578 -0.95296875 15.12644531 -0.9609375 14.25585938 C-0.98692253 12.46419189 -1.01296394 10.67252521 -1.0390625 8.88085938 C-1.04679688 8.03458984 -1.05453125 7.18832031 -1.0625 6.31640625 C-1.07410156 5.53724854 -1.08570313 4.75809082 -1.09765625 3.95532227 C-1 2 -1 2 0 0 Z " fill="#FDFAEF" transform="translate(592,261)"/>
<path d="M0 0 C4.73856655 1.83884672 5.87478305 4.90204006 7.95703125 9.31640625 C9.38242517 12.98399285 9.85719521 16.07286841 10 20 C9 21 9 21 5.83984375 21.09765625 C4.55207031 21.08605469 3.26429688 21.07445312 1.9375 21.0625 C0.64714844 21.05347656 -0.64320313 21.04445313 -1.97265625 21.03515625 C-2.97167969 21.02355469 -3.97070312 21.01195312 -5 21 C-5 20.67 -5 20.34 -5 20 C1.435 19.505 1.435 19.505 8 19 C5.28331956 8.86639659 5.28331956 8.86639659 0 0 Z " fill="#ED5A0A" transform="translate(207,660)"/>
<path d="M0 0 C4.29 0 8.58 0 13 0 C12.67 2.97 12.34 5.94 12 9 C11.01 9 10.02 9 9 9 C9.33 7.02 9.66 5.04 10 3 C6.37 3 2.74 3 -1 3 C-0.67 2.01 -0.34 1.02 0 0 Z " fill="#FCEBD4" transform="translate(309,721)"/>
<path d="M0 0 C2.70556641 -0.34057617 2.70556641 -0.34057617 6.1015625 -0.29296875 C7.31328125 -0.28330078 8.525 -0.27363281 9.7734375 -0.26367188 C11.04445313 -0.23853516 12.31546875 -0.21339844 13.625 -0.1875 C14.90375 -0.17396484 16.1825 -0.16042969 17.5 -0.14648438 C20.66708282 -0.11103196 23.83333541 -0.06161441 27 0 C27 0.33 27 0.66 27 1 C23.37 1.33 19.74 1.66 16 2 C16 2.33 16 2.66 16 3 C10.06 3 4.12 3 -2 3 C-1.34 2.01 -0.68 1.02 0 0 Z " fill="#FADFBD" transform="translate(677,400)"/>
<path d="M0 0 C0.99 0.33 1.98 0.66 3 1 C2.5 2.875 2.5 2.875 1 5 C-4.47737536 6.88875012 -9.24105478 7.20567661 -15 7 C-15.33 7.66 -15.66 8.32 -16 9 C-17.98 8.34 -19.96 7.68 -22 7 C-22 6.67 -22 6.34 -22 6 C-21.154375 5.97421875 -20.30875 5.9484375 -19.4375 5.921875 C-8.85872287 5.43333314 -8.85872287 5.43333314 0 0 Z " fill="#ED5C06" transform="translate(641,730)"/>
<path d="M0 0 C1.41623216 -0.05447047 2.83308191 -0.09300508 4.25 -0.125 C5.03890625 -0.14820313 5.8278125 -0.17140625 6.640625 -0.1953125 C9.20731941 0.0171622 10.7916067 0.71345895 13 2 C12.34 2 11.68 2 11 2 C11.20625 2.5775 11.4125 3.155 11.625 3.75 C12.08661261 6.51967567 11.42944945 7.64561267 10 10 C9.01 9.67 8.02 9.34 7 9 C7.33 8.67 7.66 8.34 8 8 C7.67 7.38125 7.34 6.7625 7 6.125 C6 4 6 4 6 2 C3.03 1.505 3.03 1.505 0 1 C0 0.67 0 0.34 0 0 Z " fill="#F0730E" transform="translate(706,709)"/>
<path d="M0 0 C0 0.33 0 0.66 0 1 C-0.59167969 1.01417969 -1.18335938 1.02835938 -1.79296875 1.04296875 C-6.10976902 1.30352603 -8.42315934 1.5581646 -11.9375 4.25 C-13.86119557 6.81492743 -15.04310208 8.95532481 -16 12 C-17.32 11.34 -18.64 10.68 -20 10 C-19.01 10 -18.02 10 -17 10 C-16.95875 9.278125 -16.9175 8.55625 -16.875 7.8125 C-15.63721895 3.83391804 -13.32298855 2.39255176 -10 0 C-6.30581799 -1.231394 -3.7943739 -0.64432764 0 0 Z " fill="#FCF6E7" transform="translate(851,694)"/>
<path d="M0 0 C1.5625 1.1875 1.5625 1.1875 3 3 C2.6875 5.6875 2.6875 5.6875 2 8 C3.3921875 8.928125 3.3921875 8.928125 4.8125 9.875 C6.875 11.25 8.9375 12.625 11 14 C5.36139301 13.59724236 2.92653154 11.83521686 -1 8 C-2.2077558 4.37673261 -1.54311128 3.35853631 0 0 Z " fill="#ED5F06" transform="translate(680,739)"/>
<path d="M0 0 C1.86785156 0.01353516 1.86785156 0.01353516 3.7734375 0.02734375 C5.18496094 0.04474609 5.18496094 0.04474609 6.625 0.0625 C6.625 0.3925 6.625 0.7225 6.625 1.0625 C5.63757813 1.18367187 4.65015625 1.30484375 3.6328125 1.4296875 C2.35148438 1.59726562 1.07015625 1.76484375 -0.25 1.9375 C-2.16425781 2.18113281 -2.16425781 2.18113281 -4.1171875 2.4296875 C-7.44664227 2.76127473 -7.44664227 2.76127473 -9.375 5.0625 C-12.375 3.0625 -12.375 3.0625 -13.375 1.0625 C-8.85684719 0.17972245 -4.59987306 -0.04339503 0 0 Z " fill="#EE7619" transform="translate(709.375,677.9375)"/>
<path d="M0 0 C-0.33 0.66 -0.66 1.32 -1 2 C-5.62 2 -10.24 2 -15 2 C-15.33 1.34 -15.66 0.68 -16 0 C-10.31302429 -0.91397824 -5.68697571 -0.91397824 0 0 Z " fill="#EC5D01" transform="translate(615,403)"/>
<path d="M0 0 C1.60407328 -0.02708567 3.2082785 -0.04643483 4.8125 -0.0625 C5.70582031 -0.07410156 6.59914062 -0.08570313 7.51953125 -0.09765625 C10 0 10 0 13 1 C13 1.66 13 2.32 13 3 C13.66 3 14.32 3 15 3 C14.67 3.66 14.34 4.32 14 5 C9.38 3.68 4.76 2.36 0 1 C0 0.67 0 0.34 0 0 Z " fill="#EF6008" transform="translate(175,709)"/>
<path d="M0 0 C0.66 1.32 1.32 2.64 2 4 C1.34 4 0.68 4 0 4 C0 5.32 0 6.64 0 8 C1.65 8 3.3 8 5 8 C4.67 8.66 4.34 9.32 4 10 C2.33388095 10.042721 0.66617115 10.04063832 -1 10 C-1.33 9.67 -1.66 9.34 -2 9 C-1.9140625 7.1875 -1.9140625 7.1875 -1.625 5 C-1.53476562 4.278125 -1.44453125 3.55625 -1.3515625 2.8125 C-1 1 -1 1 0 0 Z " fill="#ED6310" transform="translate(819,692)"/>
<path d="M0 0 C0.99 0.495 0.99 0.495 2 1 C2 1.33 2 1.66 2 2 C7.445 3.485 7.445 3.485 13 5 C13 5.33 13 5.66 13 6 C4.09236234 6.45293073 4.09236234 6.45293073 0 3 C0 2.01 0 1.02 0 0 Z " fill="#FCF7EB" transform="translate(767,735)"/>
<path d="M0 0 C0.33 0 0.66 0 1 0 C1 3.63 1 7.26 1 11 C0.67 10.01 0.34 9.02 0 8 C-0.99 8.33 -1.98 8.66 -3 9 C-3 7.35 -3 5.7 -3 4 C-2.34 3.67 -1.68 3.34 -1 3 C-0.67 2.01 -0.34 1.02 0 0 Z " fill="#FDF7EC" transform="translate(813,728)"/>
<path d="M0 0 C0.78375 0.185625 1.5675 0.37125 2.375 0.5625 C4.97089775 1.25962266 4.97089775 1.25962266 7 0 C7 0.99 7 1.98 7 3 C10.465 2.505 10.465 2.505 14 2 C12 4 12 4 8.125 4.375 C4.84774032 4.31541346 4.18312405 4.14649924 1.5 2 C1.005 1.34 0.51 0.68 0 0 Z " fill="#FCF9EF" transform="translate(298,736)"/>
<path d="M0 0 C3.3 0 6.6 0 10 0 C10 0.33 10 0.66 10 1 C5.46625958 2.03039555 4.35532149 2.17766075 0 0 Z M2 2 C4.125 2.9375 4.125 2.9375 6 4 C4.02 4.99 4.02 4.99 2 6 C1.34 5.01 0.68 4.02 0 3 C0.66 2.67 1.32 2.34 2 2 Z " fill="#EB5E01" transform="translate(617,652)"/>
<path d="M0 0 C0.66 0.33 1.32 0.66 2 1 C-3.28571429 7.42857143 -3.28571429 7.42857143 -6 10 C-6.33 9.01 -6.66 8.02 -7 7 C-4.69 4.69 -2.38 2.38 0 0 Z " fill="#FCF8ED" transform="translate(387,363)"/>
<path d="M0 0 C0.33 0 0.66 0 1 0 C1.05406122 1.93719378 1.09282025 3.87481921 1.125 5.8125 C1.14820313 6.89144531 1.17140625 7.97039063 1.1953125 9.08203125 C1 12 1 12 -1 15 C-1.33 13.02 -1.66 11.04 -2 9 C-1.67 9 -1.34 9 -1 9 C-0.67 6.03 -0.34 3.06 0 0 Z " fill="#F48F33" transform="translate(600,700)"/>
<path d="M0 0 C1.65322266 0.01740234 1.65322266 0.01740234 3.33984375 0.03515625 C4.99693359 0.04869141 4.99693359 0.04869141 6.6875 0.0625 C7.54214844 0.07410156 8.39679687 0.08570313 9.27734375 0.09765625 C9.27734375 0.42765625 9.27734375 0.75765625 9.27734375 1.09765625 C7.63765625 1.31421875 7.63765625 1.31421875 5.96484375 1.53515625 C2.34611388 1.98053729 2.34611388 1.98053729 -0.72265625 3.09765625 C-1.71265625 2.43765625 -2.70265625 1.77765625 -3.72265625 1.09765625 C-2.72265625 0.09765625 -2.72265625 0.09765625 0 0 Z " fill="#FDF6EB" transform="translate(704.72265625,721.90234375)"/>
<path d="M0 0 C1.98 0 3.96 0 6 0 C3.42215154 2.64752004 1.08351902 4.94432065 -2 7 C-1.34 4.69 -0.68 2.38 0 0 Z " fill="#FCF7EC" transform="translate(282,714)"/>
<path d="M0 0 C8.57142857 -0.14285714 8.57142857 -0.14285714 12 1 C12 1.66 12 2.32 12 3 C10.02 3 8.04 3 6 3 C6 2.34 6 1.68 6 1 C4.02 1 2.04 1 0 1 C0 0.67 0 0.34 0 0 Z " fill="#EE5A04" transform="translate(631,652)"/>
<path d="M0 0 C0.66 0 1.32 0 2 0 C1.67 1.98 1.34 3.96 1 6 C2.32 6.33 3.64 6.66 5 7 C3.35 7.33 1.7 7.66 0 8 C-1.09658936 4.71023192 -0.79953138 3.28696233 0 0 Z " fill="#EE610E" transform="translate(679,694)"/>
<path d="M0 0 C0.66 0 1.32 0 2 0 C2.33 1.32 2.66 2.64 3 4 C-0.3 4.33 -3.6 4.66 -7 5 C-5.68 4.34 -4.36 3.68 -3 3 C-2.46375 2.46375 -1.9275 1.9275 -1.375 1.375 C-0.694375 0.694375 -0.694375 0.694375 0 0 Z " fill="#EF7410" transform="translate(288,697)"/>
<path d="M0 0 C0.33 0.99 0.66 1.98 1 3 C2.32 2.01 3.64 1.02 5 0 C5.66 0.33 6.32 0.66 7 1 C3.535 3.97 3.535 3.97 0 7 C0 4.69 0 2.38 0 0 Z " fill="#FDF8EF" transform="translate(521,682)"/>
<path d="M0 0 C0.66 0 1.32 0 2 0 C1.125 5.75 1.125 5.75 0 8 C-1.65 8 -3.3 8 -5 8 C-3.68 7.67 -2.36 7.34 -1 7 C-1.020625 6.030625 -1.04125 5.06125 -1.0625 4.0625 C-1 1 -1 1 0 0 Z " fill="#EC5B04" transform="translate(834,695)"/>
</svg>
